<?xml version="1.0" encoding="utf-8"?>
<svg viewBox="0 0 1500 500" style="shape-rendering: crispedges;" xmlns="http://www.w3.org/2000/svg">
  <defs>
    <clipPath id="clip-0">
      <path d="M 74.126 164.483 L 74.126 346.613 L 31.626 346.613 L 31.626 164.483 L 74.126 164.483 ZM 130.126 164.483 C 131.959 164.483 133.503 164.566 134.756 164.733 C 136.003 164.9 137.126 165.213 138.126 165.673 C 139.126 166.133 140.086 166.78 141.006 167.613 C 141.919 168.446 142.959 169.57 144.126 170.983 L 230.626 280.363 C 230.293 276.863 230.043 273.466 229.876 270.173 C 229.709 266.88 229.626 263.776 229.626 260.863 L 229.626 164.483 L 266.876 164.483 L 266.876 346.613 L 244.876 346.613 C 241.629 346.613 238.879 346.113 236.626 345.113 C 234.379 344.113 232.213 342.28 230.126 339.613 L 144.256 231.113 C 144.503 234.28 144.709 237.383 144.876 240.423 C 145.043 243.463 145.126 246.316 145.126 248.983 L 145.126 346.613 L 107.876 346.613 L 107.876 164.483 L 130.126 164.483 ZM 408.876 181.863 L 398.376 201.483 C 397.129 203.483 395.816 204.983 394.436 205.983 C 393.063 206.983 391.293 207.483 389.126 207.483 C 387.213 207.483 385.149 206.88 382.936 205.673 C 380.729 204.466 378.229 203.113 375.436 201.613 C 372.649 200.113 369.463 198.76 365.876 197.553 C 362.296 196.34 358.213 195.733 353.626 195.733 C 345.713 195.733 339.816 197.423 335.936 200.803 C 332.063 204.176 330.126 208.736 330.126 214.483 C 330.126 218.15 331.293 221.193 333.626 223.613 C 335.959 226.026 339.023 228.11 342.816 229.863 C 346.609 231.61 350.943 233.213 355.816 234.673 C 360.689 236.133 365.669 237.76 370.756 239.553 C 375.836 241.34 380.813 243.443 385.686 245.863 C 390.566 248.276 394.899 251.36 398.686 255.113 C 402.479 258.86 405.543 263.423 407.876 268.803 C 410.209 274.176 411.376 280.653 411.376 288.233 C 411.376 296.653 409.919 304.53 407.006 311.863 C 404.086 319.196 399.856 325.593 394.316 331.053 C 388.776 336.506 381.943 340.796 373.816 343.923 C 365.689 347.05 356.459 348.613 346.126 348.613 C 340.459 348.613 334.689 348.03 328.816 346.863 C 322.943 345.696 317.256 344.05 311.756 341.923 C 306.256 339.796 301.089 337.276 296.256 334.363 C 291.423 331.443 287.213 328.193 283.626 324.613 L 296.126 304.863 C 297.046 303.363 298.339 302.153 300.006 301.233 C 301.673 300.32 303.463 299.863 305.376 299.863 C 307.876 299.863 310.396 300.653 312.936 302.233 C 315.483 303.82 318.359 305.57 321.566 307.483 C 324.773 309.403 328.459 311.153 332.626 312.733 C 336.793 314.32 341.709 315.113 347.376 315.113 C 355.043 315.113 361.003 313.426 365.256 310.053 C 369.503 306.673 371.626 301.316 371.626 293.983 C 371.626 289.736 370.459 286.28 368.126 283.613 C 365.793 280.946 362.729 278.736 358.936 276.983 C 355.149 275.236 350.839 273.696 346.006 272.363 C 341.173 271.03 336.213 269.55 331.126 267.923 C 326.046 266.296 321.089 264.296 316.256 261.923 C 311.423 259.55 307.109 256.426 303.316 252.553 C 299.523 248.673 296.459 243.84 294.126 238.053 C 291.793 232.26 290.626 225.113 290.626 216.613 C 290.626 209.78 292.003 203.113 294.756 196.613 C 297.503 190.113 301.543 184.32 306.876 179.233 C 312.209 174.153 318.753 170.093 326.506 167.053 C 334.253 164.006 343.126 162.483 353.126 162.483 C 358.713 162.483 364.149 162.923 369.436 163.803 C 374.729 164.676 379.753 165.966 384.506 167.673 C 389.253 169.38 393.689 171.423 397.816 173.803 C 401.943 176.176 405.629 178.863 408.876 181.863 ZM 419.876 164.483 L 564.626 164.483 L 564.626 197.983 L 513.376 197.983 L 513.376 346.613 L 471.126 346.613 L 471.126 197.983 L 419.876 197.983 L 419.876 164.483 ZM 661.126 164.483 L 731.626 346.613 L 698.876 346.613 C 695.209 346.613 692.189 345.76 689.816 344.053 C 687.443 342.34 685.796 340.15 684.876 337.483 L 674.126 305.733 L 604.876 305.733 L 594.126 337.483 C 593.293 339.816 591.669 341.923 589.256 343.803 C 586.836 345.676 583.876 346.613 580.376 346.613 L 547.376 346.613 L 617.876 164.483 L 661.126 164.483 Z M 631.376 227.363 L 614.626 276.983 L 664.376 276.983 L 647.626 227.113 C 646.546 223.946 645.276 220.216 643.816 215.923 C 642.356 211.63 640.919 206.983 639.506 201.983 C 638.173 207.07 636.796 211.78 635.376 216.113 C 633.963 220.446 632.629 224.196 631.376 227.363 ZM 824.626 316.113 C 830.459 316.113 835.626 315.613 840.126 314.613 C 844.626 313.613 848.876 312.28 852.876 310.613 L 852.876 282.983 L 834.876 282.983 C 832.209 282.983 830.126 282.276 828.626 280.863 C 827.126 279.443 826.376 277.65 826.376 275.483 L 826.376 252.233 L 891.126 252.233 L 891.126 329.113 C 886.459 332.526 881.606 335.463 876.566 337.923 C 871.526 340.383 866.149 342.403 860.436 343.983 C 854.729 345.57 848.646 346.74 842.186 347.493 C 835.733 348.24 828.796 348.613 821.376 348.613 C 808.043 348.613 795.709 346.26 784.376 341.553 C 773.043 336.84 763.229 330.34 754.936 322.053 C 746.649 313.76 740.149 303.926 735.436 292.553 C 730.729 281.173 728.376 268.816 728.376 255.483 C 728.376 241.903 730.626 229.426 735.126 218.053 C 739.626 206.673 746.063 196.86 754.436 188.613 C 762.816 180.36 772.943 173.943 784.816 169.363 C 796.689 164.776 809.959 162.483 824.626 162.483 C 832.213 162.483 839.339 163.11 846.006 164.363 C 852.673 165.61 858.816 167.316 864.436 169.483 C 870.063 171.65 875.209 174.233 879.876 177.233 C 884.543 180.233 888.709 183.483 892.376 186.983 L 880.126 205.613 C 878.959 207.36 877.563 208.733 875.936 209.733 C 874.316 210.733 872.546 211.233 870.626 211.233 C 868.126 211.233 865.543 210.4 862.876 208.733 C 859.543 206.733 856.396 205.006 853.436 203.553 C 850.483 202.093 847.463 200.903 844.376 199.983 C 841.296 199.07 838.046 198.403 834.626 197.983 C 831.213 197.57 827.379 197.363 823.126 197.363 C 815.213 197.363 808.089 198.76 801.756 201.553 C 795.423 204.34 790.026 208.276 785.566 213.363 C 781.106 218.443 777.669 224.546 775.256 231.673 C 772.836 238.8 771.626 246.736 771.626 255.483 C 771.626 265.15 772.959 273.733 775.626 281.233 C 778.293 288.733 781.979 295.066 786.686 300.233 C 791.399 305.4 796.983 309.34 803.436 312.053 C 809.896 314.76 816.959 316.113 824.626 316.113 ZM 969.876 279.233 L 959.126 279.233 L 959.126 346.613 L 916.876 346.613 L 916.876 164.483 L 976.126 164.483 C 989.293 164.483 1000.523 165.84 1009.816 168.553 C 1019.109 171.26 1026.693 175.03 1032.566 179.863 C 1038.439 184.696 1042.709 190.403 1045.376 196.983 C 1048.043 203.57 1049.376 210.736 1049.376 218.483 C 1049.376 224.403 1048.586 229.986 1047.006 235.233 C 1045.419 240.486 1043.063 245.343 1039.936 249.803 C 1036.816 254.256 1032.983 258.233 1028.436 261.733 C 1023.896 265.233 1018.669 268.11 1012.756 270.363 C 1015.589 271.776 1018.233 273.526 1020.686 275.613 C 1023.146 277.693 1025.293 280.233 1027.126 283.233 L 1065.876 346.613 L 1027.626 346.613 C 1020.546 346.613 1015.463 343.946 1012.376 338.613 L 982.126 285.733 C 980.793 283.4 979.229 281.733 977.436 280.733 C 975.649 279.733 973.129 279.233 969.876 279.233 Z M 959.126 196.113 L 959.126 250.113 L 976.126 250.113 C 981.879 250.113 986.776 249.383 990.816 247.923 C 994.856 246.463 998.169 244.443 1000.756 241.863 C 1003.336 239.276 1005.209 236.256 1006.376 232.803 C 1007.543 229.343 1008.126 225.613 1008.126 221.613 C 1008.126 213.613 1005.523 207.363 1000.316 202.863 C 995.109 198.363 987.046 196.113 976.126 196.113 L 959.126 196.113 ZM 1182.126 164.483 L 1252.626 346.613 L 1219.876 346.613 C 1216.209 346.613 1213.189 345.76 1210.816 344.053 C 1208.443 342.34 1206.796 340.15 1205.876 337.483 L 1195.126 305.733 L 1125.876 305.733 L 1115.126 337.483 C 1114.293 339.816 1112.669 341.923 1110.256 343.803 C 1107.836 345.676 1104.876 346.613 1101.376 346.613 L 1068.376 346.613 L 1138.876 164.483 L 1182.126 164.483 Z M 1152.376 227.363 L 1135.626 276.983 L 1185.376 276.983 L 1168.626 227.113 C 1167.546 223.946 1166.276 220.216 1164.816 215.923 C 1163.356 211.63 1161.919 206.983 1160.506 201.983 C 1159.173 207.07 1157.796 211.78 1156.376 216.113 C 1154.963 220.446 1153.629 224.196 1152.376 227.363 ZM 1360.506 263.363 C 1362.173 266.53 1363.776 269.82 1365.316 273.233 C 1366.856 276.653 1368.336 280.153 1369.756 283.733 C 1371.169 280.066 1372.669 276.506 1374.256 273.053 C 1375.836 269.593 1377.459 266.236 1379.126 262.983 L 1425.876 170.983 C 1426.709 169.403 1427.563 168.176 1428.436 167.303 C 1429.316 166.423 1430.296 165.776 1431.376 165.363 C 1432.463 164.943 1433.693 164.693 1435.066 164.613 C 1436.439 164.526 1438.043 164.483 1439.876 164.483 L 1472.126 164.483 L 1472.126 346.613 L 1434.876 346.613 L 1434.876 241.863 C 1434.876 236.776 1435.126 231.276 1435.626 225.363 L 1387.376 318.983 C 1385.876 321.903 1383.856 324.113 1381.316 325.613 C 1378.776 327.113 1375.879 327.863 1372.626 327.863 L 1366.876 327.863 C 1363.629 327.863 1360.733 327.113 1358.186 325.613 C 1355.646 324.113 1353.626 321.903 1352.126 318.983 L 1303.626 225.233 C 1303.959 228.153 1304.209 231.05 1304.376 233.923 C 1304.543 236.796 1304.626 239.443 1304.626 241.863 L 1304.626 346.613 L 1267.376 346.613 L 1267.376 164.483 L 1299.626 164.483 C 1301.459 164.483 1303.063 164.526 1304.436 164.613 C 1305.816 164.693 1307.046 164.943 1308.126 165.363 C 1309.213 165.776 1310.193 166.423 1311.066 167.303 C 1311.939 168.176 1312.793 169.403 1313.626 170.983 L 1360.506 263.363 Z" transform="matrix(1, 0, 0, 1, 0, 0)" style="fill: rgb(51, 51, 51); stroke: rgb(0, 0, 0); stroke-width: 3px; white-space: pre;"/>
    </clipPath>
  </defs>
  <g style="clip-path: url(#clip-0);">
    <path d="M 771 230 L 816 139 L 753 159 Z" style="fill: rgb(82,108,123);"/>
    <path d="M 771 230 L 835 268 L 816 139 Z" style="fill: rgb(79,95,105);"/>
    <path d="M 662 332 L 785 316 L 771 230 Z" style="fill: rgb(88,90,87);"/>
    <path d="M 771 230 L 785 316 L 835 268 Z" style="fill: rgb(82,86,85);"/>
    <path d="M 785 316 L 847 313 L 835 268 Z" style="fill: rgb(111,100,82);"/>
    <path d="M 835 268 L 912 275 L 816 139 Z" style="fill: rgb(88,95,96);"/>
    <path d="M 816 139 L 726 66 L 753 159 Z" style="fill: rgb(93,128,148);"/>
    <path d="M 753 159 L 632 146 L 771 230 Z" style="fill: rgb(74,108,128);"/>
    <path d="M 847 313 L 912 275 L 835 268 Z" style="fill: rgb(112,100,82);"/>
    <path d="M 954 139 L 872 49 L 816 139 Z" style="fill: rgb(129,140,141);"/>
    <path d="M 816 139 L 872 49 L 726 66 Z" style="fill: rgb(97,121,136);"/>
    <path d="M 912 275 L 954 139 L 816 139 Z" style="fill: rgb(116,119,116);"/>
    <path d="M 726 66 L 632 146 L 753 159 Z" style="fill: rgb(94,134,157);"/>
    <path d="M 632 146 L 626 280 L 771 230 Z" style="fill: rgb(65,96,115);"/>
    <path d="M 626 280 L 662 332 L 771 230 Z" style="fill: rgb(84,93,96);"/>
    <path d="M 852 434 L 914 363 L 847 313 Z" style="fill: rgb(178,136,70);"/>
    <path d="M 852 434 L 847 313 L 785 316 Z" style="fill: rgb(155,123,75);"/>
    <path d="M 847 313 L 914 363 L 912 275 Z" style="fill: rgb(143,116,77);"/>
    <path d="M 1042 272 L 1035 147 L 954 139 Z" style="fill: rgb(148,135,111);"/>
    <path d="M 954 139 L 942 21 L 872 49 Z" style="fill: rgb(130,132,128);"/>
    <path d="M 676.188679245283 0 L 638.2222222222222 0 L 632 32 L 726 66 Z" style="fill: rgb(65,104,132);"/>
    <path d="M 838.1052631578948 0 L 749.76 0 L 726 66 L 872 49 Z" style="fill: rgb(70,95,115);"/>
    <path d="M 726 66 L 632 32 L 632 146 Z" style="fill: rgb(85,126,151);"/>
    <path d="M 632 146 L 538 211 L 626 280 Z" style="fill: rgb(76,110,131);"/>
    <path d="M 1042 272 L 954 139 L 912 275 Z" style="fill: rgb(120,110,92);"/>
    <path d="M 954 139 L 1047 37 L 942 21 Z" style="fill: rgb(146,139,125);"/>
    <path d="M 738 487 L 852 434 L 785 316 Z" style="fill: rgb(162,117,70);"/>
    <path d="M 525 124 L 538 211 L 632 146 Z" style="fill: rgb(98,139,163);"/>
    <path d="M 567 443 L 628 445 L 662 332 Z" style="fill: rgb(171,133,94);"/>
    <path d="M 1012 413 L 1042 272 L 914 363 Z" style="fill: rgb(192,143,66);"/>
    <path d="M 914 363 L 1042 272 L 912 275 Z" style="fill: rgb(149,120,76);"/>
    <path d="M 867.9166666666666 0 L 838.1052631578948 0 L 872 49 Z" style="fill: rgb(83,97,111);"/>
    <path d="M 749.76 0 L 676.188679245283 0 L 726 66 Z" style="fill: rgb(54,91,118);"/>
    <path d="M 632 32 L 525 124 L 632 146 Z" style="fill: rgb(99,143,169);"/>
    <path d="M 942 21 L 925.6442307692307 0 L 867.9166666666666 0 L 872 49 Z" style="fill: rgb(100,105,109);"/>
    <path d="M 515 46 L 525 124 L 632 32 Z" style="fill: rgb(93,137,165);"/>
    <path d="M 1047 37 L 1013.5 0 L 955.7586206896551 0 L 942 21 Z" style="fill: rgb(130,120,108);"/>
    <path d="M 925.6442307692307 0 L 942 21 L 955.7586206896551 0 Z" style="fill: rgb(110,109,108);"/>
    <path d="M 1035 147 L 1047 37 L 954 139 Z" style="fill: rgb(168,158,137);"/>
    <path d="M 1113 41 L 1047 37 L 1035 147 Z" style="fill: rgb(173,154,125);"/>
    <path d="M 628 445 L 738 487 L 662 332 Z" style="fill: rgb(163,121,83);"/>
    <path d="M 662 332 L 738 487 L 785 316 Z" style="fill: rgb(154,123,79);"/>
    <path d="M 512 364 L 662 332 L 626 280 Z" style="fill: rgb(133,123,106);"/>
    <path d="M 931 485 L 914 363 L 852 434 Z" style="fill: rgb(189,128,63);"/>
    <path d="M 931 485 L 1012 413 L 914 363 Z" style="fill: rgb(202,137,59);"/>
    <path d="M 525 124 L 484 217 L 538 211 Z" style="fill: rgb(95,136,159);"/>
    <path d="M 538 211 L 512 364 L 626 280 Z" style="fill: rgb(103,113,116);"/>
    <path d="M 598.5454545454545 0 L 515.741935483871 0 L 515 46 L 632 32 Z" style="fill: rgb(72,115,145);"/>
    <path d="M 525 124 L 423 154 L 484 217 Z" style="fill: rgb(107,151,176);"/>
    <path d="M 468.425 0 L 446.7920792079208 0 L 472 67 L 515 46 Z" style="fill: rgb(90,136,167);"/>
    <path d="M 1013.5 0 L 1047 37 L 1034.3764705882354 0 Z" style="fill: rgb(135,121,106);"/>
    <path d="M 1012 413 L 1058 383 L 1042 272 Z" style="fill: rgb(209,153,61);"/>
    <path d="M 1042 272 L 1130 215 L 1035 147 Z" style="fill: rgb(153,131,97);"/>
    <path d="M 849.8241758241758 500 L 900.25 500 L 931 485 L 852 434 Z" style="fill: rgb(184,111,59);"/>
    <path d="M 1188 447 L 1159 383 L 1058 383 Z" style="fill: rgb(246,165,42);"/>
    <path d="M 1159 383 L 1130 215 L 1042 272 Z" style="fill: rgb(178,135,70);"/>
    <path d="M 1034.3764705882354 0 L 1047 37 L 1113 41 L 1069.2359550561798 0 Z" style="fill: rgb(150,131,107);"/>
    <path d="M 484 217 L 512 364 L 538 211 Z" style="fill: rgb(89,112,125);"/>
    <path d="M 738 487 L 775.9736842105264 500 L 849.8241758241758 500 L 852 434 Z" style="fill: rgb(168,102,63);"/>
    <path d="M 512 364 L 567 443 L 662 332 Z" style="fill: rgb(176,146,103);"/>
    <path d="M 628 445 L 654.2686567164179 500 L 697.44 500 L 738 487 Z" style="fill: rgb(164,105,77);"/>
    <path d="M 775.9736842105264 500 L 738 487 L 739.969696969697 500 Z" style="fill: rgb(159,93,63);"/>
    <path d="M 1130 215 L 1141 174 L 1035 147 Z" style="fill: rgb(176,151,111);"/>
    <path d="M 598.5454545454545 0 L 632 32 L 638.2222222222222 0 Z" style="fill: rgb(67,109,138);"/>
    <path d="M 515 46 L 472 67 L 525 124 Z" style="fill: rgb(103,150,178);"/>
    <path d="M 1141 174 L 1113 41 L 1035 147 Z" style="fill: rgb(197,175,137);"/>
    <path d="M 567 443 L 643.8260869565217 500 L 654.2686567164179 500 L 628 445 Z" style="fill: rgb(172,118,88);"/>
    <path d="M 697.44 500 L 739.969696969697 500 L 738 487 Z" style="fill: rgb(158,94,69);"/>
    <path d="M 472 67 L 423 154 L 525 124 Z" style="fill: rgb(119,167,195);"/>
    <path d="M 484 217 L 421 350 L 512 364 Z" style="fill: rgb(137,137,128);"/>
    <path d="M 362 58 L 354 155 L 423 154 Z" style="fill: rgb(133,185,214);"/>
    <path d="M 512 364 L 436 431 L 567 443 Z" style="fill: rgb(188,150,112);"/>
    <path d="M 643.8260869565217 500 L 567 443 L 548.7835051546392 500 Z" style="fill: rgb(177,114,90);"/>
    <path d="M 319 216 L 421 350 L 484 217 Z" style="fill: rgb(97,127,143);"/>
    <path d="M 1168.8433734939758 500 L 1188 447 L 1058 383 L 1137.591836734694 500 Z" style="fill: rgb(246,151,38);"/>
    <path d="M 1058 383 L 1159 383 L 1042 272 Z" style="fill: rgb(214,156,59);"/>
    <path d="M 1239 241 L 1212 125 L 1141 174 Z" style="fill: rgb(183,148,107);"/>
    <path d="M 941.060975609756 500 L 997.3116883116883 500 L 1012 413 L 931 485 Z" style="fill: rgb(208,122,52);"/>
    <path d="M 1239 241 L 1141 174 L 1130 215 Z" style="fill: rgb(169,136,93);"/>
    <path d="M 1141 174 L 1212 125 L 1113 41 Z" style="fill: rgb(203,174,133);"/>
    <path d="M 515.741935483871 0 L 468.425 0 L 515 46 Z" style="fill: rgb(80,125,156);"/>
    <path d="M 900.25 500 L 941.060975609756 500 L 931 485 Z" style="fill: rgb(194,111,55);"/>
    <path d="M 421 350 L 436 431 L 512 364 Z" style="fill: rgb(194,165,123);"/>
    <path d="M 495.75 500 L 548.7835051546392 500 L 567 443 Z" style="fill: rgb(187,124,99);"/>
    <path d="M 362 58 L 423 154 L 472 67 Z" style="fill: rgb(118,168,198);"/>
    <path d="M 423 154 L 319 216 L 484 217 Z" style="fill: rgb(104,147,172);"/>
    <path d="M 421 350 L 377 375 L 436 431 Z" style="fill: rgb(201,172,130);"/>
    <path d="M 1159 383 L 1239 241 L 1130 215 Z" style="fill: rgb(174,129,69);"/>
    <path d="M 446.7920792079208 0 L 407.39130434782606 0 L 362 58 L 472 67 Z" style="fill: rgb(97,146,177);"/>
    <path d="M 436 431 L 469.67857142857144 500 L 495.75 500 L 567 443 Z" style="fill: rgb(191,138,108);"/>
    <path d="M 1376 178 L 1234 49 L 1212 125 Z" style="fill: rgb(205,165,130);"/>
    <path d="M 1212 125 L 1234 49 L 1113 41 Z" style="fill: rgb(189,156,120);"/>
    <path d="M 1133.6666666666667 0 L 1069.2359550561798 0 L 1113 41 Z" style="fill: rgb(158,133,102);"/>
    <path d="M 319 216 L 377 375 L 421 350 Z" style="fill: rgb(153,153,144);"/>
    <path d="M 469.67857142857144 500 L 436 431 L 382.65546218487395 500 Z" style="fill: rgb(203,141,117);"/>
    <path d="M 1185.7605633802816 0 L 1133.6666666666667 0 L 1113 41 Z" style="fill: rgb(165,132,100);"/>
    <path d="M 1120.5641025641025 500 L 1137.591836734694 500 L 1058 383 L 1012 413 Z" style="fill: rgb(233,149,46);"/>
    <path d="M 1159 383 L 1274 316 L 1239 241 Z" style="fill: rgb(199,139,61);"/>
    <path d="M 219 168 L 319 216 L 354 155 Z" style="fill: rgb(105,151,178);"/>
    <path d="M 354 155 L 319 216 L 423 154 Z" style="fill: rgb(114,161,188);"/>
    <path d="M 997.3116883116883 500 L 1038.1 500 L 1012 413 Z" style="fill: rgb(219,125,47);"/>
    <path d="M 1234 49 L 1237.1012658227849 0 L 1185.7605633802816 0 L 1113 41 Z" style="fill: rgb(172,137,105);"/>
    <path d="M 1371 17 L 1323.2553191489362 0 L 1237.1012658227849 0 L 1234 49 Z" style="fill: rgb(170,127,100);"/>
    <path d="M 1257 441 L 1274 316 L 1159 383 Z" style="fill: rgb(246,163,42);"/>
    <path d="M 1239 241 L 1376 178 L 1212 125 Z" style="fill: rgb(183,140,104);"/>
    <path d="M 1038.1 500 L 1120.5641025641025 500 L 1012 413 Z" style="fill: rgb(233,132,41);"/>
    <path d="M 1188 447 L 1257 441 L 1159 383 Z" style="fill: rgb(246,154,39);"/>
    <path d="M 407.39130434782606 0 L 344.29473684210524 0 L 362 58 Z" style="fill: rgb(93,143,176);"/>
    <path d="M 216 82 L 219 168 L 354 155 Z" style="fill: rgb(118,169,199);"/>
    <path d="M 1249.7215189873418 500 L 1188 447 L 1168.8433734939758 500 Z" style="fill: rgb(245,131,32);"/>
    <path d="M 1249.7215189873418 500 L 1272.964705882353 500 L 1257 441 L 1188 447 Z" style="fill: rgb(245,136,34);"/>
    <path d="M 258 387 L 331 445 L 377 375 Z" style="fill: rgb(201,167,129);"/>
    <path d="M 377 375 L 331 445 L 436 431 Z" style="fill: rgb(207,168,132);"/>
    <path d="M 219 168 L 249 288 L 319 216 Z" style="fill: rgb(86,126,151);"/>
    <path d="M 319 216 L 249 288 L 377 375 Z" style="fill: rgb(128,138,140);"/>
    <path d="M 216 82 L 354 155 L 362 58 Z" style="fill: rgb(118,170,201);"/>
    <path d="M 1353 374 L 1359 264 L 1274 316 Z" style="fill: rgb(203,131,57);"/>
    <path d="M 1274 316 L 1359 264 L 1239 241 Z" style="fill: rgb(170,117,67);"/>
    <path d="M 249 288 L 258 387 L 377 375 Z" style="fill: rgb(176,160,133);"/>
    <path d="M 331 445 L 337.8095238095238 500 L 382.65546218487395 500 L 436 431 Z" style="fill: rgb(209,153,126);"/>
    <path d="M 269.97333333333336 0 L 362 58 L 344.29473684210524 0 Z" style="fill: rgb(86,136,170);"/>
    <path d="M 184 442 L 221 445 L 258 387 Z" style="fill: rgb(190,149,117);"/>
    <path d="M 1359 264 L 1376 178 L 1239 241 Z" style="fill: rgb(162,114,80);"/>
    <path d="M 285.5652173913044 500 L 337.8095238095238 500 L 331 445 Z" style="fill: rgb(203,140,118);"/>
    <path d="M 1257 441 L 1353 374 L 1274 316 Z" style="fill: rgb(246,158,40);"/>
    <path d="M 1340 474 L 1353 374 L 1257 441 Z" style="fill: rgb(245,141,35);"/>
    <path d="M 1359 264 L 1421 271 L 1376 178 Z" style="fill: rgb(158,105,73);"/>
    <path d="M 269.97333333333336 0 L 238.36363636363637 0 L 216 82 L 362 58 Z" style="fill: rgb(95,145,179);"/>
    <path d="M 1376 178 L 1371 17 L 1234 49 Z" style="fill: rgb(194,147,118);"/>
    <path d="M 1417.52688172043 500 L 1418 456 L 1340 474 L 1366.6933333333334 500 Z" style="fill: rgb(243,114,28);"/>
    <path d="M 1272.964705882353 500 L 1310 500 L 1340 474 L 1257 441 Z" style="fill: rgb(244,128,32);"/>
    <path d="M 221 445 L 263.2463768115942 500 L 285.5652173913044 500 L 331 445 Z" style="fill: rgb(198,144,118);"/>
    <path d="M 221 445 L 331 445 L 258 387 Z" style="fill: rgb(196,155,122);"/>
    <path d="M 1323.2553191489362 0 L 1371 17 L 1370.15 0 Z" style="fill: rgb(166,119,95);"/>
    <path d="M 1471 347 L 1421 271 L 1353 374 Z" style="fill: rgb(212,129,52);"/>
    <path d="M 1353 374 L 1421 271 L 1359 264 Z" style="fill: rgb(191,121,59);"/>
    <path d="M 1376 178 L 1459 118 L 1371 17 Z" style="fill: rgb(202,149,122);"/>
    <path d="M 1370.15 0 L 1371 17 L 1385.5714285714287 0 Z" style="fill: rgb(166,114,93);"/>
    <path d="M 174 315 L 258 387 L 249 288 Z" style="fill: rgb(152,143,128);"/>
    <path d="M 174 315 L 249 288 L 142 248 Z" style="fill: rgb(106,120,128);"/>
    <path d="M 238.36363636363637 0 L 230.51020408163265 0 L 171 81 L 216 82 Z" style="fill: rgb(91,141,174);"/>
    <path d="M 216 82 L 161 157 L 219 168 Z" style="fill: rgb(111,161,191);"/>
    <path d="M 142 248 L 249 288 L 219 168 Z" style="fill: rgb(76,115,140);"/>
    <path d="M 171 81 L 161 157 L 216 82 Z" style="fill: rgb(107,158,190);"/>
    <path d="M 161 157 L 142 248 L 219 168 Z" style="fill: rgb(88,132,160);"/>
    <path d="M 174 315 L 184 442 L 258 387 Z" style="fill: rgb(187,158,120);"/>
    <path d="M 20 215 L 142 248 L 161 157 Z" style="fill: rgb(76,117,145);"/>
    <path d="M 66 359 L 184 442 L 174 315 Z" style="fill: rgb(177,151,115);"/>
    <path d="M 263.2463768115942 500 L 221 445 L 200.22222222222223 500 Z" style="fill: rgb(193,131,110);"/>
    <path d="M 1500 174.40579710144928 L 1500 159.74545454545455 L 1459 118 L 1376 178 Z" style="fill: rgb(195,137,110);"/>
    <path d="M 1459 118 L 1451 31 L 1371 17 Z" style="fill: rgb(185,129,107);"/>
    <path d="M 230.51020408163265 0 L 168.40384615384616 0 L 171 81 Z" style="fill: rgb(73,122,158);"/>
    <path d="M 1349.811320754717 500 L 1340 474 L 1310 500 Z" style="fill: rgb(244,118,29);"/>
    <path d="M 1340 474 L 1418 456 L 1353 374 Z" style="fill: rgb(245,134,33);"/>
    <path d="M 1421 271 L 1500 188.60215053763443 L 1500 174.40579710144928 L 1376 178 Z" style="fill: rgb(172,114,86);"/>
    <path d="M 1451 31 L 1443.6190476190477 0 L 1385.5714285714287 0 L 1371 17 Z" style="fill: rgb(166,111,92);"/>
    <path d="M 171 81 L 67 118 L 161 157 Z" style="fill: rgb(105,156,188);"/>
    <path d="M 1418 456 L 1471 347 L 1353 374 Z" style="fill: rgb(245,142,35);"/>
    <path d="M 68 464 L 128.33802816901408 500 L 185.8709677419355 500 L 184 442 Z" style="fill: rgb(183,126,104);"/>
    <path d="M 184 442 L 185.8709677419355 500 L 200.22222222222223 500 L 221 445 Z" style="fill: rgb(189,133,110);"/>
    <path d="M 1500 370.2 L 1500 355.3240740740741 L 1471 347 Z" style="fill: rgb(245,136,34);"/>
    <path d="M 1459 118 L 1500 78.41379310344828 L 1500 54.015151515151516 L 1451 31 Z" style="fill: rgb(191,130,109);"/>
    <path d="M 1443.6190476190477 0 L 1451 31 L 1500 8.691056910569106 L 1500 0 Z" style="fill: rgb(167,105,89);"/>
    <path d="M 1500 256.271186440678 L 1500 188.6021505376344 L 1421 271 Z" style="fill: rgb(161,98,73);"/>
    <path d="M 1349.811320754717 500 L 1366.6933333333334 500 L 1340 474 Z" style="fill: rgb(243,113,28);"/>
    <path d="M 49 61 L 67 118 L 171 81 Z" style="fill: rgb(91,141,174);"/>
    <path d="M 1500 159.74545454545455 L 1500 78.41379310344828 L 1459 118 Z" style="fill: rgb(207,145,122);"/>
    <path d="M 101.4779411764706 0 L 49 61 L 171 81 L 168.40384615384616 0 Z" style="fill: rgb(73,122,158);"/>
    <path d="M 142 248 L 66 359 L 174 315 Z" style="fill: rgb(121,123,121);"/>
    <path d="M 1500 355.3240740740741 L 1500 305.20588235294116 L 1471 347 Z" style="fill: rgb(207,118,51);"/>
    <path d="M 1471 347 L 1500 305.20588235294116 L 1500 256.271186440678 L 1421 271 Z" style="fill: rgb(181,106,59);"/>
    <path d="M 20 215 L 66 359 L 142 248 Z" style="fill: rgb(85,104,118);"/>
    <path d="M 39.61538461538461 0 L 49 61 L 101.47794117647058 0 Z" style="fill: rgb(60,110,146);"/>
    <path d="M 67 118 L 20 215 L 161 157 Z" style="fill: rgb(88,134,165);"/>
    <path d="M 0 149.624 L 0 205.25641025641025 L 20 215 L 67 118 Z" style="fill: rgb(78,123,154);"/>
    <path d="M 0 413.52173913043475 L 0 458.1880341880342 L 68 464 L 66 359 Z" style="fill: rgb(169,127,99);"/>
    <path d="M 66 359 L 68 464 L 184 442 Z" style="fill: rgb(177,137,107);"/>
    <path d="M 49 61 L 0 114.1214953271028 L 0 149.624 L 67 118 Z" style="fill: rgb(93,143,176);"/>
    <path d="M 1500 54.015151515151516 L 1500 8.691056910569102 L 1451 31 Z" style="fill: rgb(174,112,95);"/>
    <path d="M 1500 440.4575163398693 L 1500 370.2 L 1471 347 L 1418 456 Z" style="fill: rgb(245,130,32);"/>
    <path d="M 1500 500 L 1500 440.4575163398693 L 1418 456 L 1489.887323943662 500 Z" style="fill: rgb(243,110,27);"/>
    <path d="M 1489.887323943662 500 L 1418 456 L 1417.52688172043 500 Z" style="fill: rgb(242,105,26);"/>
    <path d="M 36.165289256198335 500 L 68.29268292682927 500 L 68 464 Z" style="fill: rgb(170,108,92);"/>
    <path d="M 128.33802816901408 500 L 68 464 L 68.29268292682927 500 Z" style="fill: rgb(179,116,99);"/>
    <path d="M 0 231 L 0 271.1904761904762 L 20 215 Z" style="fill: rgb(81,97,111);"/>
    <path d="M 20 215 L 0 271.1904761904762 L 0 339.5 L 66 359 Z" style="fill: rgb(106,109,111);"/>
    <path d="M 0 0 L 0 41.65789473684211 L 49 61 L 39.61538461538461 0 Z" style="fill: rgb(54,104,141);"/>
    <path d="M 0 41.65789473684211 L 0 114.1214953271028 L 49 61 Z" style="fill: rgb(80,129,164);"/>
    <path d="M 0 205.25641025641025 L 0 231 L 20 215 Z" style="fill: rgb(58,97,125);"/>
    <path d="M 0 339.5 L 0 413.52173913043475 L 66 359 Z" style="fill: rgb(164,134,101);"/>
    <path d="M 0 458.1880341880342 L 0 500 L 36.165289256198335 500 L 68 464 Z" style="fill: rgb(167,104,89);"/>
  </g>
</svg>