<?xml version="1.0" encoding="utf-8"?>
<svg viewBox="0 0 1500 500" style="shape-rendering: crispedges;" xmlns="http://www.w3.org/2000/svg">
  <defs>
    <clipPath id="clip-0">
      <path d="M 484.376 -318.137 L 473.876 -298.517 C 472.629 -296.517 471.316 -295.017 469.936 -294.017 C 468.563 -293.017 466.793 -292.517 464.626 -292.517 C 462.713 -292.517 460.649 -293.12 458.436 -294.327 C 456.229 -295.534 453.729 -296.887 450.936 -298.387 C 448.149 -299.887 444.963 -301.24 441.376 -302.447 C 437.796 -303.66 433.713 -304.267 429.126 -304.267 C 421.213 -304.267 415.316 -302.577 411.436 -299.197 C 407.563 -295.824 405.626 -291.264 405.626 -285.517 C 405.626 -281.85 406.793 -278.807 409.126 -276.387 C 411.459 -273.974 414.523 -271.89 418.316 -270.137 C 422.109 -268.39 426.443 -266.787 431.316 -265.327 C 436.189 -263.867 441.169 -262.24 446.256 -260.447 C 451.336 -258.66 456.313 -256.557 461.186 -254.137 C 466.066 -251.724 470.399 -248.64 474.186 -244.887 C 477.979 -241.14 481.043 -236.577 483.376 -231.197 C 485.709 -225.824 486.876 -219.347 486.876 -211.767 C 486.876 -203.347 485.419 -195.47 482.506 -188.137 C 479.586 -180.804 475.356 -174.407 469.816 -168.947 C 464.276 -163.494 457.443 -159.204 449.316 -156.077 C 441.189 -152.95 431.959 -151.387 421.626 -151.387 C 415.959 -151.387 410.189 -151.97 404.316 -153.137 C 398.443 -154.304 392.756 -155.95 387.256 -158.077 C 381.756 -160.204 376.589 -162.724 371.756 -165.637 C 366.923 -168.557 362.713 -171.807 359.126 -175.387 L 371.626 -195.137 C 372.546 -196.637 373.839 -197.847 375.506 -198.767 C 377.173 -199.68 378.963 -200.137 380.876 -200.137 C 383.376 -200.137 385.896 -199.347 388.436 -197.767 C 390.983 -196.18 393.859 -194.43 397.066 -192.517 C 400.273 -190.597 403.959 -188.847 408.126 -187.267 C 412.293 -185.68 417.209 -184.887 422.876 -184.887 C 430.543 -184.887 436.503 -186.574 440.756 -189.947 C 445.003 -193.327 447.126 -198.684 447.126 -206.017 C 447.126 -210.264 445.959 -213.72 443.626 -216.387 C 441.293 -219.054 438.229 -221.264 434.436 -223.017 C 430.649 -224.764 426.339 -226.304 421.506 -227.637 C 416.673 -228.97 411.713 -230.45 406.626 -232.077 C 401.546 -233.704 396.589 -235.704 391.756 -238.077 C 386.923 -240.45 382.609 -243.574 378.816 -247.447 C 375.023 -251.327 371.959 -256.16 369.626 -261.947 C 367.293 -267.74 366.126 -274.887 366.126 -283.387 C 366.126 -290.22 367.503 -296.887 370.256 -303.387 C 373.003 -309.887 377.043 -315.68 382.376 -320.767 C 387.709 -325.847 394.253 -329.907 402.006 -332.947 C 409.753 -335.994 418.626 -337.517 428.626 -337.517 C 434.213 -337.517 439.649 -337.077 444.936 -336.197 C 450.229 -335.324 455.253 -334.034 460.006 -332.327 C 464.753 -330.62 469.189 -328.577 473.316 -326.197 C 477.443 -323.824 481.129 -321.137 484.376 -318.137 ZM 495.376 -335.517 L 640.126 -335.517 L 640.126 -302.017 L 588.876 -302.017 L 588.876 -153.387 L 546.626 -153.387 L 546.626 -302.017 L 495.376 -302.017 L 495.376 -335.517 ZM 829.876 -244.517 C 829.876 -231.35 827.606 -219.1 823.066 -207.767 C 818.526 -196.434 812.129 -186.577 803.876 -178.197 C 795.629 -169.824 785.693 -163.264 774.066 -158.517 C 762.439 -153.764 749.543 -151.387 735.376 -151.387 C 721.209 -151.387 708.293 -153.764 696.626 -158.517 C 684.959 -163.264 674.979 -169.824 666.686 -178.197 C 658.399 -186.577 651.983 -196.434 647.436 -207.767 C 642.896 -219.1 640.626 -231.35 640.626 -244.517 C 640.626 -257.684 642.896 -269.934 647.436 -281.267 C 651.983 -292.6 658.399 -302.434 666.686 -310.767 C 674.979 -319.1 684.959 -325.64 696.626 -330.387 C 708.293 -335.14 721.209 -337.517 735.376 -337.517 C 749.543 -337.517 762.439 -335.12 774.066 -330.327 C 785.693 -325.534 795.629 -318.97 803.876 -310.637 C 812.129 -302.304 818.526 -292.47 823.066 -281.137 C 827.606 -269.804 829.876 -257.597 829.876 -244.517 Z M 786.626 -244.517 C 786.626 -253.517 785.459 -261.62 783.126 -268.827 C 780.793 -276.034 777.439 -282.137 773.066 -287.137 C 768.693 -292.137 763.339 -295.97 757.006 -298.637 C 750.673 -301.304 743.463 -302.637 735.376 -302.637 C 727.209 -302.637 719.939 -301.304 713.566 -298.637 C 707.193 -295.97 701.816 -292.137 697.436 -287.137 C 693.063 -282.137 689.709 -276.034 687.376 -268.827 C 685.043 -261.62 683.876 -253.517 683.876 -244.517 C 683.876 -235.43 685.043 -227.284 687.376 -220.077 C 689.709 -212.87 693.063 -206.767 697.436 -201.767 C 701.816 -196.767 707.193 -192.954 713.566 -190.327 C 719.939 -187.7 727.209 -186.387 735.376 -186.387 C 743.463 -186.387 750.673 -187.7 757.006 -190.327 C 763.339 -192.954 768.693 -196.767 773.066 -201.767 C 777.439 -206.767 780.793 -212.87 783.126 -220.077 C 785.459 -227.284 786.626 -235.43 786.626 -244.517 ZM 903.126 -220.767 L 892.376 -220.767 L 892.376 -153.387 L 850.126 -153.387 L 850.126 -335.517 L 909.376 -335.517 C 922.543 -335.517 933.773 -334.16 943.066 -331.447 C 952.359 -328.74 959.943 -324.97 965.816 -320.137 C 971.689 -315.304 975.959 -309.597 978.626 -303.017 C 981.293 -296.43 982.626 -289.264 982.626 -281.517 C 982.626 -275.597 981.836 -270.014 980.256 -264.767 C 978.669 -259.514 976.313 -254.657 973.186 -250.197 C 970.066 -245.744 966.233 -241.767 961.686 -238.267 C 957.146 -234.767 951.919 -231.89 946.006 -229.637 C 948.839 -228.224 951.483 -226.474 953.936 -224.387 C 956.396 -222.307 958.543 -219.767 960.376 -216.767 L 999.126 -153.387 L 960.876 -153.387 C 953.796 -153.387 948.713 -156.054 945.626 -161.387 L 915.376 -214.267 C 914.043 -216.6 912.479 -218.267 910.686 -219.267 C 908.899 -220.267 906.379 -220.767 903.126 -220.767 Z M 892.376 -303.887 L 892.376 -249.887 L 909.376 -249.887 C 915.129 -249.887 920.026 -250.617 924.066 -252.077 C 928.106 -253.537 931.419 -255.557 934.006 -258.137 C 936.586 -260.724 938.459 -263.744 939.626 -267.197 C 940.793 -270.657 941.376 -274.387 941.376 -278.387 C 941.376 -286.387 938.773 -292.637 933.566 -297.137 C 928.359 -301.637 920.296 -303.887 909.376 -303.887 L 892.376 -303.887 ZM 1016.376 -335.517 L 1133.626 -335.517 L 1133.626 -303.017 L 1058.876 -303.017 L 1058.876 -260.517 L 1116.126 -260.517 L 1116.126 -229.267 L 1058.876 -229.267 L 1058.876 -185.887 L 1133.626 -185.887 L 1133.626 -153.387 L 1016.376 -153.387 L 1016.376 -335.517 Z" transform="matrix(1, 0, 0, -1, 0, 0)" style="fill: rgb(51, 51, 51); stroke: rgb(0, 0, 0); stroke-width: 3px; white-space: pre;"/>
    </clipPath>
  </defs>
  <g transform="matrix(1, 0, 0, -1, 0, 500)" style="clip-path: url(#clip-0);">
    <path d="M 725 224 L 760 184 L 660 192 Z" style="fill: rgb(67,99,118);"/>
    <path d="M 760 184 L 702 115 L 660 192 Z" style="fill: rgb(80,116,137);"/>
    <path d="M 702 115 L 664 113 L 660 192 Z" style="fill: rgb(92,132,155);"/>
    <path d="M 660 192 L 687 279 L 725 224 Z" style="fill: rgb(59,88,106);"/>
    <path d="M 864 197 L 814 137 L 760 184 Z" style="fill: rgb(95,114,124);"/>
    <path d="M 852 270 L 760 184 L 725 224 Z" style="fill: rgb(65,86,99);"/>
    <path d="M 760 184 L 765 73 L 702 115 Z" style="fill: rgb(89,128,150);"/>
    <path d="M 726 50 L 631 89 L 664 113 Z" style="fill: rgb(85,125,150);"/>
    <path d="M 664 113 L 631 89 L 660 192 Z" style="fill: rgb(98,139,163);"/>
    <path d="M 726 50 L 664 113 L 702 115 Z" style="fill: rgb(85,124,149);"/>
    <path d="M 814 137 L 765 73 L 760 184 Z" style="fill: rgb(98,128,145);"/>
    <path d="M 765 73 L 726 50 L 702 115 Z" style="fill: rgb(77,115,139);"/>
    <path d="M 551 236 L 649 286 L 660 192 Z" style="fill: rgb(65,96,114);"/>
    <path d="M 660 192 L 649 286 L 687 279 Z" style="fill: rgb(59,85,101);"/>
    <path d="M 741 340 L 758 312 L 687 279 Z" style="fill: rgb(104,98,87);"/>
    <path d="M 687 279 L 758 312 L 725 224 Z" style="fill: rgb(72,84,91);"/>
    <path d="M 852 270 L 864 197 L 760 184 Z" style="fill: rgb(83,96,102);"/>
    <path d="M 814 137 L 848 44 L 765 73 Z" style="fill: rgb(98,122,136);"/>
    <path d="M 637 359 L 741 340 L 687 279 Z" style="fill: rgb(122,110,91);"/>
    <path d="M 758 312 L 852 270 L 725 224 Z" style="fill: rgb(75,83,86);"/>
    <path d="M 541 122 L 551 236 L 660 192 Z" style="fill: rgb(88,126,148);"/>
    <path d="M 649 286 L 637 359 L 687 279 Z" style="fill: rgb(111,108,98);"/>
    <path d="M 796 372 L 852 270 L 758 312 Z" style="fill: rgb(121,105,81);"/>
    <path d="M 541 77 L 541 122 L 631 89 Z" style="fill: rgb(101,145,172);"/>
    <path d="M 631 89 L 541 122 L 660 192 Z" style="fill: rgb(102,144,169);"/>
    <path d="M 719.0555555555555 0 L 663.3913043478261 0 L 661 1 L 726 50 Z" style="fill: rgb(58,96,123);"/>
    <path d="M 726 50 L 661 1 L 631 89 Z" style="fill: rgb(73,113,139);"/>
    <path d="M 512 299 L 553 278 L 551 236 Z" style="fill: rgb(92,111,120);"/>
    <path d="M 551 236 L 553 278 L 649 286 Z" style="fill: rgb(83,102,113);"/>
    <path d="M 888 108 L 848 44 L 814 137 Z" style="fill: rgb(116,131,138);"/>
    <path d="M 769.918918918919 0 L 719.0555555555555 0 L 726 50 Z" style="fill: rgb(51,88,114);"/>
    <path d="M 864 197 L 888 108 L 814 137 Z" style="fill: rgb(118,131,135);"/>
    <path d="M 927 125 L 888 108 L 864 197 Z" style="fill: rgb(131,138,136);"/>
    <path d="M 559.2815533980582 0 L 546.9230769230769 0 L 541 77 L 631 89 Z" style="fill: rgb(86,129,157);"/>
    <path d="M 784.5670103092783 0 L 769.918918918919 0 L 726 50 L 765 73 Z" style="fill: rgb(65,98,122);"/>
    <path d="M 553 278 L 637 359 L 649 286 Z" style="fill: rgb(117,114,105);"/>
    <path d="M 848 44 L 811.1176470588235 0 L 784.5670103092783 0 L 765 73 Z" style="fill: rgb(80,103,120);"/>
    <path d="M 777 417 L 796 372 L 741 340 Z" style="fill: rgb(156,124,75);"/>
    <path d="M 741 340 L 796 372 L 758 312 Z" style="fill: rgb(129,109,80);"/>
    <path d="M 541 77 L 491 131 L 541 122 Z" style="fill: rgb(111,157,184);"/>
    <path d="M 541 122 L 491 131 L 551 236 Z" style="fill: rgb(101,144,168);"/>
    <path d="M 952 226 L 927 125 L 864 197 Z" style="fill: rgb(122,123,116);"/>
    <path d="M 888 108 L 958 42 L 848 44 Z" style="fill: rgb(121,127,128);"/>
    <path d="M 811.1176470588235 0 L 848 44 L 843.9384615384615 0 Z" style="fill: rgb(79,96,111);"/>
    <path d="M 472 215 L 512 299 L 551 236 Z" style="fill: rgb(73,106,126);"/>
    <path d="M 553 278 L 560 386 L 637 359 Z" style="fill: rgb(148,133,107);"/>
    <path d="M 961 6 L 934.5555555555555 0 L 843.9384615384615 0 L 848 44 Z" style="fill: rgb(100,107,112);"/>
    <path d="M 491 131 L 472 215 L 551 236 Z" style="fill: rgb(93,133,156);"/>
    <path d="M 663.3913043478261 0 L 660.984126984127 0 L 661 1 Z" style="fill: rgb(58,97,124);"/>
    <path d="M 661 1 L 653.4666666666667 0 L 559.2815533980582 0 L 631 89 Z" style="fill: rgb(73,115,143);"/>
    <path d="M 541 77 L 482 54 L 491 131 Z" style="fill: rgb(106,153,181);"/>
    <path d="M 579 438 L 665 415 L 637 359 Z" style="fill: rgb(170,133,93);"/>
    <path d="M 637 359 L 665 415 L 741 340 Z" style="fill: rgb(158,130,87);"/>
    <path d="M 665 415 L 724 419 L 741 340 Z" style="fill: rgb(157,123,81);"/>
    <path d="M 888 348 L 933 279 L 852 270 Z" style="fill: rgb(129,109,80);"/>
    <path d="M 852 270 L 933 279 L 864 197 Z" style="fill: rgb(89,89,85);"/>
    <path d="M 660.984126984127 0 L 653.4666666666667 0 L 661 1 Z" style="fill: rgb(64,105,134);"/>
    <path d="M 933 279 L 952 226 L 864 197 Z" style="fill: rgb(103,100,91);"/>
    <path d="M 796 372 L 888 348 L 852 270 Z" style="fill: rgb(141,116,78);"/>
    <path d="M 850 412 L 888 348 L 796 372 Z" style="fill: rgb(175,133,70);"/>
    <path d="M 724 419 L 777 417 L 741 340 Z" style="fill: rgb(152,117,75);"/>
    <path d="M 507.43589743589746 0 L 506.54545454545456 0 L 482 54 L 541 77 Z" style="fill: rgb(91,137,166);"/>
    <path d="M 417 113 L 417 233 L 472 215 Z" style="fill: rgb(104,147,172);"/>
    <path d="M 512 299 L 560 386 L 553 278 Z" style="fill: rgb(137,131,116);"/>
    <path d="M 546.9230769230769 0 L 507.43589743589746 0 L 541 77 Z" style="fill: rgb(81,125,155);"/>
    <path d="M 777 417 L 850 412 L 796 372 Z" style="fill: rgb(166,122,70);"/>
    <path d="M 1041 313 L 1010 220 L 933 279 Z" style="fill: rgb(134,112,79);"/>
    <path d="M 995 125 L 958 42 L 927 125 Z" style="fill: rgb(150,147,135);"/>
    <path d="M 927 125 L 958 42 L 888 108 Z" style="fill: rgb(137,140,135);"/>
    <path d="M 1010 220 L 995 125 L 952 226 Z" style="fill: rgb(140,129,110);"/>
    <path d="M 952 226 L 995 125 L 927 125 Z" style="fill: rgb(144,140,127);"/>
    <path d="M 491 452 L 579 438 L 560 386 Z" style="fill: rgb(183,140,104);"/>
    <path d="M 560 386 L 579 438 L 637 359 Z" style="fill: rgb(175,141,99);"/>
    <path d="M 665 415 L 695 498 L 724 419 Z" style="fill: rgb(160,112,78);"/>
    <path d="M 724 419 L 803 493 L 777 417 Z" style="fill: rgb(157,106,69);"/>
    <path d="M 777 417 L 803 493 L 850 412 Z" style="fill: rgb(167,112,67);"/>
    <path d="M 440 360 L 478 359 L 512 299 Z" style="fill: rgb(161,149,124);"/>
    <path d="M 512 299 L 478 359 L 560 386 Z" style="fill: rgb(163,146,117);"/>
    <path d="M 417 113 L 472 215 L 491 131 Z" style="fill: rgb(113,159,185);"/>
    <path d="M 472 215 L 411 275 L 512 299 Z" style="fill: rgb(93,119,133);"/>
    <path d="M 386 34 L 417 113 L 482 54 Z" style="fill: rgb(108,158,188);"/>
    <path d="M 482 54 L 417 113 L 491 131 Z" style="fill: rgb(115,163,192);"/>
    <path d="M 393.84615384615387 0 L 386 34 L 482 54 L 419 0 Z" style="fill: rgb(95,143,175);"/>
    <path d="M 986.304347826087 0 L 977.8 0 L 961 6 L 958 42 Z" style="fill: rgb(127,120,111);"/>
    <path d="M 958 42 L 961 6 L 848 44 Z" style="fill: rgb(118,119,117);"/>
    <path d="M 965 347 L 933 279 L 888 348 Z" style="fill: rgb(158,125,74);"/>
    <path d="M 933 279 L 1010 220 L 952 226 Z" style="fill: rgb(114,103,86);"/>
    <path d="M 934.5555555555555 0 L 961 6 L 954.8709677419355 0 Z" style="fill: rgb(99,104,109);"/>
    <path d="M 946 439 L 965 347 L 888 348 Z" style="fill: rgb(197,146,65);"/>
    <path d="M 417 233 L 411 275 L 472 215 Z" style="fill: rgb(85,122,144);"/>
    <path d="M 330 276 L 411 275 L 417 233 Z" style="fill: rgb(100,130,147);"/>
    <path d="M 656.8269230769231 500 L 691.1904761904761 500 L 695 498 L 665 415 Z" style="fill: rgb(164,107,78);"/>
    <path d="M 995 125 L 1017 67 L 958 42 Z" style="fill: rgb(152,144,129);"/>
    <path d="M 1093 116 L 1017 67 L 995 125 Z" style="fill: rgb(173,159,134);"/>
    <path d="M 411 275 L 440 360 L 512 299 Z" style="fill: rgb(140,140,131);"/>
    <path d="M 491 452 L 574 493 L 579 438 Z" style="fill: rgb(183,130,100);"/>
    <path d="M 946 439 L 984 360 L 965 347 Z" style="fill: rgb(205,149,62);"/>
    <path d="M 965 347 L 1041 313 L 933 279 Z" style="fill: rgb(162,127,74);"/>
    <path d="M 946 439 L 888 348 L 850 412 Z" style="fill: rgb(188,135,65);"/>
    <path d="M 695 498 L 803 493 L 724 419 Z" style="fill: rgb(154,98,68);"/>
    <path d="M 1017 67 L 990.5774647887324 0 L 986.304347826087 0 L 958 42 Z" style="fill: rgb(138,129,116);"/>
    <path d="M 954.8709677419355 0 L 961 6 L 960.5714285714286 0 Z" style="fill: rgb(110,109,108);"/>
    <path d="M 491 452 L 560 386 L 478 359 Z" style="fill: rgb(187,152,112);"/>
    <path d="M 579 438 L 637.1728395061729 500 L 656.8269230769231 500 L 665 415 Z" style="fill: rgb(170,118,86);"/>
    <path d="M 574 493 L 595.8076923076923 500 L 637.1728395061729 500 L 579 438 Z" style="fill: rgb(175,116,89);"/>
    <path d="M 799.4078947368421 500 L 819.8823529411765 500 L 803 493 Z" style="fill: rgb(165,96,62);"/>
    <path d="M 365 53 L 359 151 L 417 113 Z" style="fill: rgb(127,179,209);"/>
    <path d="M 417 113 L 359 151 L 417 233 Z" style="fill: rgb(116,163,190);"/>
    <path d="M 411 275 L 352 367 L 440 360 Z" style="fill: rgb(167,158,138);"/>
    <path d="M 419 0 L 482 54 L 506.54545454545456 0 Z" style="fill: rgb(86,133,165);"/>
    <path d="M 440 360 L 491 452 L 478 359 Z" style="fill: rgb(193,161,120);"/>
    <path d="M 844.6122448979592 500 L 858.3661971830986 500 L 946 439 L 850 412 Z" style="fill: rgb(184,118,61);"/>
    <path d="M 1069 304 L 1041 313 L 1082 356 Z" style="fill: rgb(192,143,66);"/>
    <path d="M 984 360 L 1041 313 L 965 347 Z" style="fill: rgb(187,141,68);"/>
    <path d="M 1010 220 L 1093 116 L 995 125 Z" style="fill: rgb(168,153,127);"/>
    <path d="M 803 493 L 819.8823529411765 500 L 844.6122448979592 500 L 850 412 Z" style="fill: rgb(173,107,63);"/>
    <path d="M 696.943661971831 500 L 799.4078947368421 500 L 803 493 L 695 498 Z" style="fill: rgb(153,90,64);"/>
    <path d="M 977.8 0 L 960.5714285714286 0 L 961 6 Z" style="fill: rgb(122,115,107);"/>
    <path d="M 386 34 L 365 53 L 417 113 Z" style="fill: rgb(113,164,195);"/>
    <path d="M 386 34 L 350.6027397260274 0 L 333.3152173913044 0 L 365 53 Z" style="fill: rgb(96,146,179);"/>
    <path d="M 1041 313 L 1072 234 L 1010 220 Z" style="fill: rgb(134,112,79);"/>
    <path d="M 1082 356 L 1041 313 L 984 360 Z" style="fill: rgb(199,147,64);"/>
    <path d="M 1041 313 L 1069 304 L 1072 234 Z" style="fill: rgb(160,126,74);"/>
    <path d="M 1160 134 L 1093 116 L 1160 219 Z" style="fill: rgb(192,164,121);"/>
    <path d="M 1072 234 L 1093 116 L 1010 220 Z" style="fill: rgb(160,140,108);"/>
    <path d="M 990.5774647887324 0 L 1017 67 L 1070 5 L 1025 0 Z" style="fill: rgb(145,130,112);"/>
    <path d="M 398 443 L 490 499 L 491 452 Z" style="fill: rgb(196,143,114);"/>
    <path d="M 491 452 L 490 499 L 574 493 Z" style="fill: rgb(188,130,102);"/>
    <path d="M 595.8076923076923 500 L 574 493 L 579.144578313253 500 Z" style="fill: rgb(172,109,84);"/>
    <path d="M 398 443 L 491 452 L 440 360 Z" style="fill: rgb(198,158,121);"/>
    <path d="M 316 200 L 417 233 L 359 151 Z" style="fill: rgb(107,152,177);"/>
    <path d="M 316 200 L 330 276 L 417 233 Z" style="fill: rgb(91,131,154);"/>
    <path d="M 288 192 L 316 200 L 359 151 Z" style="fill: rgb(107,153,180);"/>
    <path d="M 858.3661971830986 500 L 886.9629629629629 500 L 960 483 L 946 439 Z" style="fill: rgb(193,117,57);"/>
    <path d="M 946 439 L 1022 437 L 984 360 Z" style="fill: rgb(210,144,57);"/>
    <path d="M 695.3678160919541 500 L 695 498 L 691.1904761904761 500 Z" style="fill: rgb(162,99,74);"/>
    <path d="M 695.3678160919541 500 L 696.943661971831 500 L 695 498 Z" style="fill: rgb(156,93,68);"/>
    <path d="M 954.1842105263158 500 L 995.4782608695652 500 L 960 483 Z" style="fill: rgb(205,117,52);"/>
    <path d="M 1116 51 L 1070 5 L 1017 67 Z" style="fill: rgb(162,142,115);"/>
    <path d="M 1025 0 L 1070 5 L 1067.4242424242425 0 Z" style="fill: rgb(139,123,105);"/>
    <path d="M 330 276 L 352 367 L 411 275 Z" style="fill: rgb(145,149,144);"/>
    <path d="M 574.6086956521739 500 L 579.144578313253 500 L 574 493 Z" style="fill: rgb(176,112,88);"/>
    <path d="M 960 483 L 1022 437 L 946 439 Z" style="fill: rgb(208,132,55);"/>
    <path d="M 352 367 L 398 443 L 440 360 Z" style="fill: rgb(204,173,132);"/>
    <path d="M 393.84615384615387 0 L 350.6027397260274 0 L 386 34 Z" style="fill: rgb(92,142,175);"/>
    <path d="M 261 140 L 288 192 L 359 151 Z" style="fill: rgb(113,161,189);"/>
    <path d="M 1071 415 L 1082 356 L 984 360 Z" style="fill: rgb(226,162,55);"/>
    <path d="M 1160 219 L 1093 116 L 1072 234 Z" style="fill: rgb(173,147,106);"/>
    <path d="M 316 200 L 276 267 L 330 276 Z" style="fill: rgb(82,121,144);"/>
    <path d="M 330 276 L 277 337 L 352 367 Z" style="fill: rgb(159,153,137);"/>
    <path d="M 261 140 L 359 151 L 365 53 Z" style="fill: rgb(125,178,208);"/>
    <path d="M 1160 134 L 1116 51 L 1093 116 Z" style="fill: rgb(197,171,130);"/>
    <path d="M 1093 116 L 1116 51 L 1017 67 Z" style="fill: rgb(177,156,126);"/>
    <path d="M 1067.4242424242425 0 L 1070 5 L 1071.9285714285713 0 Z" style="fill: rgb(149,128,104);"/>
    <path d="M 1022 437 L 1071 415 L 984 360 Z" style="fill: rgb(221,152,54);"/>
    <path d="M 1110 491 L 1071 415 L 1022 437 Z" style="fill: rgb(231,146,46);"/>
    <path d="M 288 192 L 276 267 L 316 200 Z" style="fill: rgb(91,132,157);"/>
    <path d="M 352 367 L 364 457 L 398 443 Z" style="fill: rgb(208,168,132);"/>
    <path d="M 278 453 L 364 457 L 352 367 Z" style="fill: rgb(203,162,128);"/>
    <path d="M 398 443 L 394.4375 500 L 487.55 500 L 490 499 Z" style="fill: rgb(202,141,116);"/>
    <path d="M 490 499 L 490.86238532110093 500 L 574.6086956521739 500 L 574 493 Z" style="fill: rgb(183,120,95);"/>
    <path d="M 954.1842105263158 500 L 960 483 L 886.9629629629629 500 Z" style="fill: rgb(191,110,56);"/>
    <path d="M 960 483 L 995.4782608695652 500 L 1009.2173913043479 500 L 1022 437 Z" style="fill: rgb(213,128,51);"/>
    <path d="M 246 50 L 261 140 L 365 53 Z" style="fill: rgb(110,161,193);"/>
    <path d="M 288 192 L 176 194 L 276 267 Z" style="fill: rgb(87,128,153);"/>
    <path d="M 490 500 L 490.86238532110093 500 L 490 499 Z" style="fill: rgb(187,124,100);"/>
    <path d="M 1160 219 L 1072 234 L 1182 275 Z" style="fill: rgb(154,123,79);"/>
    <path d="M 1072 234 L 1069 304 L 1182 275 Z" style="fill: rgb(163,127,73);"/>
    <path d="M 1146 355 L 1069 304 L 1082 356 Z" style="fill: rgb(211,154,60);"/>
    <path d="M 1138.037037037037 0 L 1081.5714285714287 0 L 1070 5 L 1116 51 Z" style="fill: rgb(164,137,105);"/>
    <path d="M 1081.5714285714287 0 L 1071.9285714285713 0 L 1070 5 Z" style="fill: rgb(159,134,102);"/>
    <path d="M 276 267 L 277 337 L 330 276 Z" style="fill: rgb(126,136,138);"/>
    <path d="M 204 309 L 277 337 L 276 267 Z" style="fill: rgb(132,136,133);"/>
    <path d="M 1136 464 L 1146 355 L 1071 415 Z" style="fill: rgb(244,163,43);"/>
    <path d="M 1071 415 L 1146 355 L 1082 356 Z" style="fill: rgb(239,170,48);"/>
    <path d="M 333.3152173913044 0 L 281.9550561797753 0 L 246 50 L 365 53 Z" style="fill: rgb(92,142,176);"/>
    <path d="M 261 140 L 176 194 L 288 192 Z" style="fill: rgb(101,147,175);"/>
    <path d="M 252.09756097560975 0 L 246 50 L 281.9550561797753 0 Z" style="fill: rgb(81,131,165);"/>
    <path d="M 1236 91 L 1174 45 L 1160 134 Z" style="fill: rgb(195,162,125);"/>
    <path d="M 1160 134 L 1174 45 L 1116 51 Z" style="fill: rgb(190,161,123);"/>
    <path d="M 364 457 L 378.6829268292683 500 L 394.4375 500 L 398 443 Z" style="fill: rgb(208,151,125);"/>
    <path d="M 1146 355 L 1182 275 L 1069 304 Z" style="fill: rgb(197,146,64);"/>
    <path d="M 1160 219 L 1240 165 L 1160 134 Z" style="fill: rgb(186,152,111);"/>
    <path d="M 1174 45 L 1160.2 0 L 1138.037037037037 0 L 1116 51 Z" style="fill: rgb(172,142,107);"/>
    <path d="M 488.56060606060606 500 L 490 500 L 490 499 Z" style="fill: rgb(197,134,110);"/>
    <path d="M 309 500 L 309 500 L 378.6829268292683 500 L 364 457 Z" style="fill: rgb(208,145,122);"/>
    <path d="M 487.55 500 L 488.56060606060606 500 L 490 499 Z" style="fill: rgb(202,139,116);"/>
    <path d="M 1009.2173913043479 500 L 1048.8 500 L 1110 491 L 1022 437 Z" style="fill: rgb(226,134,46);"/>
    <path d="M 1146 355 L 1226 299 L 1182 275 Z" style="fill: rgb(196,141,63);"/>
    <path d="M 1109.7631578947369 500 L 1110 491 L 1048.8 500 Z" style="fill: rgb(233,132,41);"/>
    <path d="M 202 353 L 278 453 L 277 337 Z" style="fill: rgb(193,164,125);"/>
    <path d="M 277 337 L 278 453 L 352 367 Z" style="fill: rgb(198,169,129);"/>
    <path d="M 278 453 L 309 500 L 364 457 Z" style="fill: rgb(203,149,122);"/>
    <path d="M 1110 491 L 1136 464 L 1071 415 Z" style="fill: rgb(241,149,41);"/>
    <path d="M 200 80 L 261 140 L 246 50 Z" style="fill: rgb(107,158,190);"/>
    <path d="M 200 80 L 193 134 L 261 140 Z" style="fill: rgb(114,166,197);"/>
    <path d="M 174.30188679245282 0 L 171.0843373493976 0 L 200 80 L 246 50 Z" style="fill: rgb(88,138,172);"/>
    <path d="M 176 194 L 204 309 L 276 267 Z" style="fill: rgb(81,112,133);"/>
    <path d="M 1243 196 L 1240 165 L 1160 219 Z" style="fill: rgb(177,140,100);"/>
    <path d="M 1243 196 L 1160 219 L 1182 275 Z" style="fill: rgb(160,124,83);"/>
    <path d="M 1236 346 L 1226 299 L 1146 355 Z" style="fill: rgb(214,149,57);"/>
    <path d="M 1110 491 L 1134 500 L 1162.8235294117646 500 L 1136 464 Z" style="fill: rgb(245,140,35);"/>
    <path d="M 193 134 L 176 194 L 261 140 Z" style="fill: rgb(105,152,182);"/>
    <path d="M 116 269 L 176 194 L 87 217 Z" style="fill: rgb(71,110,136);"/>
    <path d="M 1240 165 L 1236 91 L 1160 134 Z" style="fill: rgb(205,170,132);"/>
    <path d="M 1226 299 L 1243 196 L 1182 275 Z" style="fill: rgb(157,116,72);"/>
    <path d="M 1332 37 L 1287.5 0 L 1240.9765625 0 L 1236 91 Z" style="fill: rgb(176,134,105);"/>
    <path d="M 204 309 L 202 353 L 277 337 Z" style="fill: rgb(154,145,128);"/>
    <path d="M 309 500 L 309 500 L 309 500 Z" style="fill: rgb(201,138,117);"/>
    <path d="M 167 432 L 202 353 L 121 360 Z" style="fill: rgb(183,153,116);"/>
    <path d="M 1261 422 L 1236 346 L 1146 355 Z" style="fill: rgb(245,166,43);"/>
    <path d="M 1226 299 L 1295 310 L 1243 196 Z" style="fill: rgb(166,118,69);"/>
    <path d="M 1261 422 L 1146 355 L 1136 464 Z" style="fill: rgb(246,158,40);"/>
    <path d="M 1211.8658536585365 0 L 1160.2 0 L 1174 45 Z" style="fill: rgb(165,131,99);"/>
    <path d="M 252.09756097560975 0 L 174.30188679245282 0 L 246 50 Z" style="fill: rgb(78,127,162);"/>
    <path d="M 200 80 L 118 59 L 193 134 Z" style="fill: rgb(100,151,183);"/>
    <path d="M 309 500 L 309 500 L 309 500 Z" style="fill: rgb(206,144,121);"/>
    <path d="M 264.9113924050633 500 L 309 500 L 309 500 L 278 453 Z" style="fill: rgb(199,138,116);"/>
    <path d="M 1236 91 L 1240.9765625 0 L 1211.8658536585365 0 L 1174 45 Z" style="fill: rgb(176,140,108);"/>
    <path d="M 1294 114 L 1236 91 L 1240 165 Z" style="fill: rgb(207,168,132);"/>
    <path d="M 1109.7631578947369 500 L 1134 500 L 1110 491 Z" style="fill: rgb(245,138,34);"/>
    <path d="M 219.69620253164555 500 L 264.9113924050633 500 L 278 453 Z" style="fill: rgb(194,131,111);"/>
    <path d="M 1321 191 L 1240 165 L 1243 196 Z" style="fill: rgb(181,140,103);"/>
    <path d="M 1321 191 L 1294 114 L 1240 165 Z" style="fill: rgb(194,151,116);"/>
    <path d="M 121 360 L 202 353 L 204 309 Z" style="fill: rgb(155,142,122);"/>
    <path d="M 202 353 L 167 432 L 278 453 Z" style="fill: rgb(190,152,118);"/>
    <path d="M 116 269 L 204 309 L 176 194 Z" style="fill: rgb(76,107,128);"/>
    <path d="M 104 152 L 176 194 L 193 134 Z" style="fill: rgb(97,144,174);"/>
    <path d="M 1296 370 L 1295 310 L 1236 346 Z" style="fill: rgb(221,146,52);"/>
    <path d="M 1236 346 L 1295 310 L 1226 299 Z" style="fill: rgb(203,138,59);"/>
    <path d="M 171.0843373493976 0 L 167.48387096774192 0 L 118 59 L 200 80 Z" style="fill: rgb(85,134,168);"/>
    <path d="M 309 500 L 309 500 L 309 500 Z" style="fill: rgb(198,135,114);"/>
    <path d="M 99.84615384615384 0 L 118 59 L 167.48387096774195 0 Z" style="fill: rgb(68,117,153);"/>
    <path d="M 1214 500 L 1229.4285714285713 500 L 1261 422 L 1136 464 Z" style="fill: rgb(245,141,35);"/>
    <path d="M 118 59 L 104 152 L 193 134 Z" style="fill: rgb(105,155,188);"/>
    <path d="M 1295 310 L 1321 191 L 1243 196 Z" style="fill: rgb(160,116,79);"/>
    <path d="M 1294 114 L 1332 37 L 1236 91 Z" style="fill: rgb(193,150,119);"/>
    <path d="M 1162.8235294117646 500 L 1214 500 L 1136 464 Z" style="fill: rgb(245,135,33);"/>
    <path d="M 66 259 L 121 360 L 116 269 Z" style="fill: rgb(109,115,119);"/>
    <path d="M 116 269 L 121 360 L 204 309 Z" style="fill: rgb(128,127,122);"/>
    <path d="M 167 432 L 175.84 500 L 219.69620253164555 500 L 278 453 Z" style="fill: rgb(190,135,111);"/>
    <path d="M 1261 422 L 1296 370 L 1236 346 Z" style="fill: rgb(246,160,41);"/>
    <path d="M 1295 310 L 1366 224 L 1321 191 Z" style="fill: rgb(156,108,73);"/>
    <path d="M 1330 418 L 1296 370 L 1261 422 Z" style="fill: rgb(246,150,38);"/>
    <path d="M 104 152 L 87 217 L 176 194 Z" style="fill: rgb(84,127,156);"/>
    <path d="M 66 259 L 87 217 L 11 219 Z" style="fill: rgb(62,100,127);"/>
    <path d="M 38 365 L 123 412 L 121 360 Z" style="fill: rgb(175,146,110);"/>
    <path d="M 121 360 L 123 412 L 167 432 Z" style="fill: rgb(180,145,112);"/>
    <path d="M 1369 144 L 1332 37 L 1294 114 Z" style="fill: rgb(199,153,122);"/>
    <path d="M 147.57142857142858 500 L 175.84 500 L 167 432 Z" style="fill: rgb(185,123,104);"/>
    <path d="M 24 156 L 87 217 L 104 152 Z" style="fill: rgb(83,128,157);"/>
    <path d="M 65 78 L 104 152 L 118 59 Z" style="fill: rgb(94,144,177);"/>
    <path d="M 87 217 L 66 259 L 116 269 Z" style="fill: rgb(60,97,122);"/>
    <path d="M 99.84615384615384 0 L 82.72727272727273 0 L 65 78 L 118 59 Z" style="fill: rgb(73,123,158);"/>
    <path d="M 1287.5 0 L 1332 37 L 1334.642857142857 0 Z" style="fill: rgb(166,121,96);"/>
    <path d="M 1414 314 L 1366 224 L 1295 310 Z" style="fill: rgb(176,114,63);"/>
    <path d="M 1321 191 L 1369 144 L 1294 114 Z" style="fill: rgb(197,151,118);"/>
    <path d="M 1334.642857142857 0 L 1332 37 L 1348.7096774193549 0 Z" style="fill: rgb(167,119,95);"/>
    <path d="M 1366 224 L 1369 144 L 1321 191 Z" style="fill: rgb(181,131,99);"/>
    <path d="M 1323.4 500 L 1261 422 L 1229.4285714285713 500 Z" style="fill: rgb(245,130,32);"/>
    <path d="M 1323.4 500 L 1335.79797979798 500 L 1330 418 L 1261 422 Z" style="fill: rgb(245,135,33);"/>
    <path d="M 1296 370 L 1397 346 L 1295 310 Z" style="fill: rgb(221,141,51);"/>
    <path d="M 34 429 L 107.81188118811882 500 L 134.9322033898305 500 L 123 412 Z" style="fill: rgb(177,127,102);"/>
    <path d="M 123 412 L 134.9322033898305 500 L 147.57142857142858 500 L 167 432 Z" style="fill: rgb(182,131,106);"/>
    <path d="M 1412 83 L 1372.037037037037 0 L 1348.7096774193549 0 L 1332 37 Z" style="fill: rgb(177,126,102);"/>
    <path d="M 0 54.684782608695656 L 0 103.76470588235294 L 24 156 L 65 78 Z" style="fill: rgb(85,134,168);"/>
    <path d="M 65 78 L 24 156 L 104 152 Z" style="fill: rgb(99,148,181);"/>
    <path d="M 66 259 L 38 365 L 121 360 Z" style="fill: rgb(134,125,114);"/>
    <path d="M 82.72727272727272 0 L 49.25 0 L 65 78 Z" style="fill: rgb(61,110,147);"/>
    <path d="M 0 325.7173913043478 L 0 357.28125 L 38 365 L 66 259 Z" style="fill: rgb(127,119,109);"/>
    <path d="M 24 156 L 11 219 L 87 217 Z" style="fill: rgb(72,114,143);"/>
    <path d="M 0 175.8 L 0 206.77777777777777 L 11 219 L 24 156 Z" style="fill: rgb(71,114,144);"/>
    <path d="M 1433.0263157894738 0 L 1471 13 L 1454.0277777777778 0 Z" style="fill: rgb(166,113,92);"/>
    <path d="M 1412 83 L 1332 37 L 1369 144 Z" style="fill: rgb(196,146,118);"/>
    <path d="M 1440 157 L 1369 144 L 1366 224 Z" style="fill: rgb(186,133,103);"/>
    <path d="M 1440 157 L 1412 83 L 1369 144 Z" style="fill: rgb(208,154,126);"/>
    <path d="M 1399 428 L 1397 346 L 1330 418 Z" style="fill: rgb(245,145,36);"/>
    <path d="M 1330 418 L 1397 346 L 1296 370 Z" style="fill: rgb(246,153,39);"/>
    <path d="M 1434 309 L 1414 314 L 1449 351 Z" style="fill: rgb(208,125,53);"/>
    <path d="M 1397 346 L 1414 314 L 1295 310 Z" style="fill: rgb(207,130,55);"/>
    <path d="M 38 365 L 34 429 L 123 412 Z" style="fill: rgb(172,137,105);"/>
    <path d="M 0 357.28125 L 0 385.3666666666667 L 34 429 L 38 365 Z" style="fill: rgb(166,136,102);"/>
    <path d="M 0 146.33766233766232 L 0 175.8 L 24 156 Z" style="fill: rgb(82,128,160);"/>
    <path d="M 0 275 L 0 325.7173913043478 L 66 259 Z" style="fill: rgb(103,106,109);"/>
    <path d="M 1466 199 L 1440 157 L 1366 224 Z" style="fill: rgb(178,122,93);"/>
    <path d="M 1372.037037037037 0 L 1412 83 L 1471 13 L 1433.0263157894738 0 Z" style="fill: rgb(174,120,98);"/>
    <path d="M 1399 500 L 1399 428 L 1348.8426966292134 500 Z" style="fill: rgb(243,116,29);"/>
    <path d="M 1335.79797979798 500 L 1348.8426966292134 500 L 1399 428 L 1330 418 Z" style="fill: rgb(245,130,32);"/>
    <path d="M 1414 314 L 1434 309 L 1366 224 Z" style="fill: rgb(176,110,62);"/>
    <path d="M 1449 351 L 1414 314 L 1397 346 Z" style="fill: rgb(217,131,50);"/>
    <path d="M 49.25 0 L 18 0 L 0 18 L 0 54.684782608695656 L 65 78 Z" style="fill: rgb(65,115,151);"/>
    <path d="M 0 0 L 0 18 L 18 0 Z" style="fill: rgb(52,102,139);"/>
    <path d="M 0 229.28571428571428 L 11 219 L 0 219.56701030927834 Z" style="fill: rgb(52,89,115);"/>
    <path d="M 0 229.28571428571428 L 0 275 L 66 259 L 11 219 Z" style="fill: rgb(59,89,112);"/>
    <path d="M 1434 309 L 1466 199 L 1366 224 Z" style="fill: rgb(155,99,69);"/>
    <path d="M 1491 52 L 1471 13 L 1412 83 Z" style="fill: rgb(183,125,104);"/>
    <path d="M 1399 428 L 1449 351 L 1397 346 Z" style="fill: rgb(246,147,37);"/>
    <path d="M 1500 238.01639344262296 L 1500 219.28070175438597 L 1466 199 Z" style="fill: rgb(160,97,72);"/>
    <path d="M 0 103.76470588235294 L 0 146.33766233766232 L 24 156 Z" style="fill: rgb(88,137,171);"/>
    <path d="M 1399 428 L 1453 438 L 1449 351 Z" style="fill: rgb(245,136,34);"/>
    <path d="M 1491 52 L 1412 83 L 1440 157 Z" style="fill: rgb(200,142,118);"/>
    <path d="M 18.87962962962963 500 L 107.8118811881188 500 L 34 429 Z" style="fill: rgb(174,111,95);"/>
    <path d="M 0 219.56701030927834 L 11 219 L 0 206.77777777777777 Z" style="fill: rgb(63,104,132);"/>
    <path d="M 0 447.64516129032256 L 0 500 L 18.87962962962963 500 L 34 429 Z" style="fill: rgb(167,111,92);"/>
    <path d="M 0 447.64516129032256 L 34 429 L 0 385.3666666666667 Z" style="fill: rgb(165,126,98);"/>
    <path d="M 1435.9 500 L 1441.4857142857143 500 L 1453 438 L 1399 428 Z" style="fill: rgb(244,121,30);"/>
    <path d="M 1500 219.28070175438597 L 1500 171.2962962962963 L 1466 199 Z" style="fill: rgb(177,114,89);"/>
    <path d="M 1500 155.5 L 1500 83.96551724137932 L 1491 52 L 1440 157 Z" style="fill: rgb(208,148,124);"/>
    <path d="M 1500 171.2962962962963 L 1500 155.5 L 1440 157 L 1466 199 Z" style="fill: rgb(189,128,102);"/>
    <path d="M 1399 500 L 1435.9 500 L 1399 428 Z" style="fill: rgb(243,113,28);"/>
    <path d="M 1500 238.01639344262296 L 1466 199 L 1434 309 L 1500 280.61290322580646 Z" style="fill: rgb(159,95,64);"/>
    <path d="M 1500 280.61290322580646 L 1434 309 L 1449 351 L 1500 297.38461538461536 Z" style="fill: rgb(196,115,55);"/>
    <path d="M 1500 297.38461538461536 L 1449 351 L 1500 357.1388888888889 Z" style="fill: rgb(210,120,50);"/>
    <path d="M 1454.0277777777778 0 L 1471 13 L 1472.111111111111 0 Z" style="fill: rgb(166,109,91);"/>
    <path d="M 1500 6.385964912280702 L 1500 0 L 1472.111111111111 0 L 1471 13 Z" style="fill: rgb(167,105,89);"/>
    <path d="M 1500 39.351351351351354 L 1500 6.385964912280702 L 1471 13 L 1491 52 Z" style="fill: rgb(174,112,95);"/>
    <path d="M 1500 416.01612903225805 L 1500 395.8181818181818 L 1449 351 L 1453 438 Z" style="fill: rgb(245,135,33);"/>
    <path d="M 1500 49.59154929577465 L 1491 52 L 1500 83.9655172413793 Z" style="fill: rgb(194,132,111);"/>
    <path d="M 1500 49.59154929577465 L 1500 39.351351351351354 L 1491 52 Z" style="fill: rgb(176,114,97);"/>
    <path d="M 1500 478.95714285714286 L 1500 416.01612903225805 L 1453 438 Z" style="fill: rgb(244,117,29);"/>
    <path d="M 1500 500 L 1500 478.95714285714286 L 1453 438 L 1441.4857142857143 500 Z" style="fill: rgb(243,109,27);"/>
    <path d="M 1500 395.8181818181818 L 1500 357.1388888888889 L 1449 351 Z" style="fill: rgb(245,139,35);"/>
  </g>
</svg>