<?xml version="1.0" encoding="utf-8"?>
<svg viewBox="0 0 1500 500" style="shape-rendering: crispedges;" xmlns="http://www.w3.org/2000/svg">
  <defs>
    <clipPath id="clip-0">
      <path d="M -1289.12 181.863 L -1299.62 201.483 C -1300.867 203.483 -1302.18 204.983 -1303.56 205.983 C -1304.933 206.983 -1306.703 207.483 -1308.87 207.483 C -1310.783 207.483 -1312.847 206.88 -1315.06 205.673 C -1317.267 204.466 -1319.767 203.113 -1322.56 201.613 C -1325.347 200.113 -1328.533 198.76 -1332.12 197.553 C -1335.7 196.34 -1339.783 195.733 -1344.37 195.733 C -1352.283 195.733 -1358.18 197.423 -1362.06 200.803 C -1365.933 204.176 -1367.87 208.736 -1367.87 214.483 C -1367.87 218.15 -1366.703 221.193 -1364.37 223.613 C -1362.037 226.026 -1358.973 228.11 -1355.18 229.863 C -1351.387 231.61 -1347.053 233.213 -1342.18 234.673 C -1337.307 236.133 -1332.327 237.76 -1327.24 239.553 C -1322.16 241.34 -1317.183 243.443 -1312.31 245.863 C -1307.43 248.276 -1303.097 251.36 -1299.31 255.113 C -1295.517 258.86 -1292.453 263.423 -1290.12 268.803 C -1287.787 274.176 -1286.62 280.653 -1286.62 288.233 C -1286.62 296.653 -1288.077 304.53 -1290.99 311.863 C -1293.91 319.196 -1298.14 325.593 -1303.68 331.053 C -1309.22 336.506 -1316.053 340.796 -1324.18 343.923 C -1332.307 347.05 -1341.537 348.613 -1351.87 348.613 C -1357.537 348.613 -1363.307 348.03 -1369.18 346.863 C -1375.053 345.696 -1380.74 344.05 -1386.24 341.923 C -1391.74 339.796 -1396.907 337.276 -1401.74 334.363 C -1406.573 331.443 -1410.783 328.193 -1414.37 324.613 L -1401.87 304.863 C -1400.95 303.363 -1399.657 302.153 -1397.99 301.233 C -1396.323 300.32 -1394.533 299.863 -1392.62 299.863 C -1390.12 299.863 -1387.6 300.653 -1385.06 302.233 C -1382.513 303.82 -1379.637 305.57 -1376.43 307.483 C -1373.223 309.403 -1369.537 311.153 -1365.37 312.733 C -1361.203 314.32 -1356.287 315.113 -1350.62 315.113 C -1342.953 315.113 -1336.993 313.426 -1332.74 310.053 C -1328.493 306.673 -1326.37 301.316 -1326.37 293.983 C -1326.37 289.736 -1327.537 286.28 -1329.87 283.613 C -1332.203 280.946 -1335.267 278.736 -1339.06 276.983 C -1342.847 275.236 -1347.157 273.696 -1351.99 272.363 C -1356.823 271.03 -1361.783 269.55 -1366.87 267.923 C -1371.95 266.296 -1376.907 264.296 -1381.74 261.923 C -1386.573 259.55 -1390.887 256.426 -1394.68 252.553 C -1398.473 248.673 -1401.537 243.84 -1403.87 238.053 C -1406.203 232.26 -1407.37 225.113 -1407.37 216.613 C -1407.37 209.78 -1405.993 203.113 -1403.24 196.613 C -1400.493 190.113 -1396.453 184.32 -1391.12 179.233 C -1385.787 174.153 -1379.243 170.093 -1371.49 167.053 C -1363.743 164.006 -1354.87 162.483 -1344.87 162.483 C -1339.283 162.483 -1333.847 162.923 -1328.56 163.803 C -1323.267 164.676 -1318.243 165.966 -1313.49 167.673 C -1308.743 169.38 -1304.307 171.423 -1300.18 173.803 C -1296.053 176.176 -1292.367 178.863 -1289.12 181.863 ZM -1189.87 313.233 C -1184.203 313.233 -1179.14 312.296 -1174.68 310.423 C -1170.22 308.55 -1166.45 305.863 -1163.37 302.363 C -1160.283 298.863 -1157.93 294.593 -1156.31 289.553 C -1154.683 284.506 -1153.87 278.776 -1153.87 272.363 L -1153.87 164.483 L -1111.62 164.483 L -1111.62 272.363 C -1111.62 283.53 -1113.433 293.78 -1117.06 303.113 C -1120.68 312.446 -1125.867 320.486 -1132.62 327.233 C -1139.367 333.986 -1147.573 339.236 -1157.24 342.983 C -1166.907 346.736 -1177.783 348.613 -1189.87 348.613 C -1202.037 348.613 -1212.953 346.736 -1222.62 342.983 C -1232.287 339.236 -1240.493 333.986 -1247.24 327.233 C -1253.993 320.486 -1259.16 312.446 -1262.74 303.113 C -1266.327 293.78 -1268.12 283.53 -1268.12 272.363 L -1268.12 164.483 L -1225.87 164.483 L -1225.87 272.233 C -1225.87 278.653 -1225.057 284.383 -1223.43 289.423 C -1221.803 294.463 -1219.45 298.756 -1216.37 302.303 C -1213.283 305.843 -1209.513 308.55 -1205.06 310.423 C -1200.6 312.296 -1195.537 313.233 -1189.87 313.233 ZM -1011.37 346.613 L -1084.12 346.613 L -1084.12 164.483 L -1017.12 164.483 C -1004.533 164.483 -993.823 165.65 -984.99 167.983 C -976.157 170.316 -968.95 173.61 -963.37 177.863 C -957.783 182.11 -953.72 187.276 -951.18 193.363 C -948.64 199.443 -947.37 206.233 -947.37 213.733 C -947.37 217.82 -947.953 221.76 -949.12 225.553 C -950.287 229.34 -952.12 232.9 -954.62 236.233 C -957.12 239.566 -960.327 242.59 -964.24 245.303 C -968.16 248.01 -972.87 250.363 -978.37 252.363 C -966.37 255.276 -957.493 260.006 -951.74 266.553 C -945.993 273.093 -943.12 281.486 -943.12 291.733 C -943.12 299.486 -944.62 306.696 -947.62 313.363 C -950.62 320.03 -955.017 325.843 -960.81 330.803 C -966.597 335.756 -973.74 339.63 -982.24 342.423 C -990.74 345.216 -1000.45 346.613 -1011.37 346.613 Z M -1012.37 269.363 L -1041.87 269.363 L -1041.87 314.733 L -1012.12 314.733 C -1006.533 314.733 -1001.97 314.026 -998.43 312.613 C -994.89 311.193 -992.12 309.36 -990.12 307.113 C -988.12 304.86 -986.743 302.316 -985.99 299.483 C -985.243 296.65 -984.87 293.776 -984.87 290.863 C -984.87 287.53 -985.307 284.53 -986.18 281.863 C -987.053 279.196 -988.553 276.946 -990.68 275.113 C -992.807 273.28 -995.62 271.863 -999.12 270.863 C -1002.62 269.863 -1007.037 269.363 -1012.37 269.363 Z M -1041.87 196.113 L -1041.87 241.113 L -1019.87 241.113 C -1015.203 241.113 -1010.993 240.78 -1007.24 240.113 C -1003.493 239.446 -1000.307 238.28 -997.68 236.613 C -995.053 234.946 -993.053 232.653 -991.68 229.733 C -990.307 226.82 -989.62 223.153 -989.62 218.733 C -989.62 214.4 -990.16 210.796 -991.24 207.923 C -992.327 205.05 -993.993 202.736 -996.24 200.983 C -998.493 199.236 -1001.35 197.986 -1004.81 197.233 C -1008.263 196.486 -1012.367 196.113 -1017.12 196.113 L -1041.87 196.113 ZM -808.12 181.863 L -818.62 201.483 C -819.867 203.483 -821.18 204.983 -822.56 205.983 C -823.933 206.983 -825.703 207.483 -827.87 207.483 C -829.783 207.483 -831.847 206.88 -834.06 205.673 C -836.267 204.466 -838.767 203.113 -841.56 201.613 C -844.347 200.113 -847.533 198.76 -851.12 197.553 C -854.7 196.34 -858.783 195.733 -863.37 195.733 C -871.283 195.733 -877.18 197.423 -881.06 200.803 C -884.933 204.176 -886.87 208.736 -886.87 214.483 C -886.87 218.15 -885.703 221.193 -883.37 223.613 C -881.037 226.026 -877.973 228.11 -874.18 229.863 C -870.387 231.61 -866.053 233.213 -861.18 234.673 C -856.307 236.133 -851.327 237.76 -846.24 239.553 C -841.16 241.34 -836.183 243.443 -831.31 245.863 C -826.43 248.276 -822.097 251.36 -818.31 255.113 C -814.517 258.86 -811.453 263.423 -809.12 268.803 C -806.787 274.176 -805.62 280.653 -805.62 288.233 C -805.62 296.653 -807.077 304.53 -809.99 311.863 C -812.91 319.196 -817.14 325.593 -822.68 331.053 C -828.22 336.506 -835.053 340.796 -843.18 343.923 C -851.307 347.05 -860.537 348.613 -870.87 348.613 C -876.537 348.613 -882.307 348.03 -888.18 346.863 C -894.053 345.696 -899.74 344.05 -905.24 341.923 C -910.74 339.796 -915.907 337.276 -920.74 334.363 C -925.573 331.443 -929.783 328.193 -933.37 324.613 L -920.87 304.863 C -919.95 303.363 -918.657 302.153 -916.99 301.233 C -915.323 300.32 -913.533 299.863 -911.62 299.863 C -909.12 299.863 -906.6 300.653 -904.06 302.233 C -901.513 303.82 -898.637 305.57 -895.43 307.483 C -892.223 309.403 -888.537 311.153 -884.37 312.733 C -880.203 314.32 -875.287 315.113 -869.62 315.113 C -861.953 315.113 -855.993 313.426 -851.74 310.053 C -847.493 306.673 -845.37 301.316 -845.37 293.983 C -845.37 289.736 -846.537 286.28 -848.87 283.613 C -851.203 280.946 -854.267 278.736 -858.06 276.983 C -861.847 275.236 -866.157 273.696 -870.99 272.363 C -875.823 271.03 -880.783 269.55 -885.87 267.923 C -890.95 266.296 -895.907 264.296 -900.74 261.923 C -905.573 259.55 -909.887 256.426 -913.68 252.553 C -917.473 248.673 -920.537 243.84 -922.87 238.053 C -925.203 232.26 -926.37 225.113 -926.37 216.613 C -926.37 209.78 -924.993 203.113 -922.24 196.613 C -919.493 190.113 -915.453 184.32 -910.12 179.233 C -904.787 174.153 -898.243 170.093 -890.49 167.053 C -882.743 164.006 -873.87 162.483 -863.87 162.483 C -858.283 162.483 -852.847 162.923 -847.56 163.803 C -842.267 164.676 -837.243 165.966 -832.49 167.673 C -827.743 169.38 -823.307 171.423 -819.18 173.803 C -815.053 176.176 -811.367 178.863 -808.12 181.863 ZM -662.24 299.483 C -661.24 299.483 -660.24 299.673 -659.24 300.053 C -658.24 300.426 -657.283 301.07 -656.37 301.983 L -639.62 319.613 C -646.953 329.193 -656.14 336.423 -667.18 341.303 C -678.22 346.176 -691.283 348.613 -706.37 348.613 C -720.203 348.613 -732.6 346.26 -743.56 341.553 C -754.513 336.84 -763.803 330.34 -771.43 322.053 C -779.057 313.76 -784.91 303.926 -788.99 292.553 C -793.077 281.173 -795.12 268.816 -795.12 255.483 C -795.12 241.903 -792.787 229.426 -788.12 218.053 C -783.453 206.673 -776.933 196.86 -768.56 188.613 C -760.18 180.36 -750.157 173.943 -738.49 169.363 C -726.823 164.776 -713.95 162.483 -699.87 162.483 C -693.037 162.483 -686.6 163.09 -680.56 164.303 C -674.513 165.51 -668.867 167.176 -663.62 169.303 C -658.367 171.423 -653.533 173.963 -649.12 176.923 C -644.7 179.883 -640.783 183.153 -637.37 186.733 L -651.62 205.863 C -652.533 207.03 -653.617 208.093 -654.87 209.053 C -656.117 210.006 -657.867 210.483 -660.12 210.483 C -661.62 210.483 -663.037 210.15 -664.37 209.483 C -665.703 208.816 -667.12 208.006 -668.62 207.053 C -670.12 206.093 -671.767 205.05 -673.56 203.923 C -675.347 202.796 -677.47 201.756 -679.93 200.803 C -682.39 199.843 -685.267 199.03 -688.56 198.363 C -691.847 197.696 -695.7 197.363 -700.12 197.363 C -707.787 197.363 -714.787 198.716 -721.12 201.423 C -727.453 204.13 -732.89 208.006 -737.43 213.053 C -741.97 218.093 -745.513 224.196 -748.06 231.363 C -750.6 238.53 -751.87 246.57 -751.87 255.483 C -751.87 264.816 -750.6 273.11 -748.06 280.363 C -745.513 287.61 -742.053 293.713 -737.68 298.673 C -733.307 303.633 -728.203 307.403 -722.37 309.983 C -716.537 312.57 -710.287 313.863 -703.62 313.863 C -699.787 313.863 -696.287 313.676 -693.12 313.303 C -689.953 312.923 -687.017 312.276 -684.31 311.363 C -681.597 310.443 -679.013 309.256 -676.56 307.803 C -674.1 306.343 -671.62 304.53 -669.12 302.363 C -668.12 301.53 -667.037 300.843 -665.87 300.303 C -664.703 299.756 -663.493 299.483 -662.24 299.483 ZM -567.37 279.233 L -578.12 279.233 L -578.12 346.613 L -620.37 346.613 L -620.37 164.483 L -561.12 164.483 C -547.953 164.483 -536.723 165.84 -527.43 168.553 C -518.137 171.26 -510.553 175.03 -504.68 179.863 C -498.807 184.696 -494.537 190.403 -491.87 196.983 C -489.203 203.57 -487.87 210.736 -487.87 218.483 C -487.87 224.403 -488.66 229.986 -490.24 235.233 C -491.827 240.486 -494.183 245.343 -497.31 249.803 C -500.43 254.256 -504.263 258.233 -508.81 261.733 C -513.35 265.233 -518.577 268.11 -524.49 270.363 C -521.657 271.776 -519.013 273.526 -516.56 275.613 C -514.1 277.693 -511.953 280.233 -510.12 283.233 L -471.37 346.613 L -509.62 346.613 C -516.7 346.613 -521.783 343.946 -524.87 338.613 L -555.12 285.733 C -556.453 283.4 -558.017 281.733 -559.81 280.733 C -561.597 279.733 -564.117 279.233 -567.37 279.233 Z M -578.12 196.113 L -578.12 250.113 L -561.12 250.113 C -555.367 250.113 -550.47 249.383 -546.43 247.923 C -542.39 246.463 -539.077 244.443 -536.49 241.863 C -533.91 239.276 -532.037 236.256 -530.87 232.803 C -529.703 229.343 -529.12 225.613 -529.12 221.613 C -529.12 213.613 -531.723 207.363 -536.93 202.863 C -542.137 198.363 -550.2 196.113 -561.12 196.113 L -578.12 196.113 ZM -407.87 164.483 L -407.87 346.613 L -450.37 346.613 L -450.37 164.483 L -407.87 164.483 ZM -301.37 346.613 L -374.12 346.613 L -374.12 164.483 L -307.12 164.483 C -294.533 164.483 -283.823 165.65 -274.99 167.983 C -266.157 170.316 -258.95 173.61 -253.37 177.863 C -247.783 182.11 -243.72 187.276 -241.18 193.363 C -238.64 199.443 -237.37 206.233 -237.37 213.733 C -237.37 217.82 -237.953 221.76 -239.12 225.553 C -240.287 229.34 -242.12 232.9 -244.62 236.233 C -247.12 239.566 -250.327 242.59 -254.24 245.303 C -258.16 248.01 -262.87 250.363 -268.37 252.363 C -256.37 255.276 -247.493 260.006 -241.74 266.553 C -235.993 273.093 -233.12 281.486 -233.12 291.733 C -233.12 299.486 -234.62 306.696 -237.62 313.363 C -240.62 320.03 -245.017 325.843 -250.81 330.803 C -256.597 335.756 -263.74 339.63 -272.24 342.423 C -280.74 345.216 -290.45 346.613 -301.37 346.613 Z M -302.37 269.363 L -331.87 269.363 L -331.87 314.733 L -302.12 314.733 C -296.533 314.733 -291.97 314.026 -288.43 312.613 C -284.89 311.193 -282.12 309.36 -280.12 307.113 C -278.12 304.86 -276.743 302.316 -275.99 299.483 C -275.243 296.65 -274.87 293.776 -274.87 290.863 C -274.87 287.53 -275.307 284.53 -276.18 281.863 C -277.053 279.196 -278.553 276.946 -280.68 275.113 C -282.807 273.28 -285.62 271.863 -289.12 270.863 C -292.62 269.863 -297.037 269.363 -302.37 269.363 Z M -331.87 196.113 L -331.87 241.113 L -309.87 241.113 C -305.203 241.113 -300.993 240.78 -297.24 240.113 C -293.493 239.446 -290.307 238.28 -287.68 236.613 C -285.053 234.946 -283.053 232.653 -281.68 229.733 C -280.307 226.82 -279.62 223.153 -279.62 218.733 C -279.62 214.4 -280.16 210.796 -281.24 207.923 C -282.327 205.05 -283.993 202.736 -286.24 200.983 C -288.493 199.236 -291.35 197.986 -294.81 197.233 C -298.263 196.486 -302.367 196.113 -307.12 196.113 L -331.87 196.113 ZM -210.12 164.483 L -92.87 164.483 L -92.87 196.983 L -167.62 196.983 L -167.62 239.483 L -110.37 239.483 L -110.37 270.733 L -167.62 270.733 L -167.62 314.113 L -92.87 314.113 L -92.87 346.613 L -210.12 346.613 L -210.12 164.483 Z" transform="matrix(-1, 0, 0, 1, 0, 0)" style="fill: rgb(51, 51, 51); stroke: rgb(0, 0, 0); stroke-width: 3px; white-space: pre;"/>
    </clipPath>
  </defs>
  <g transform="matrix(-1, 0, 0, 1, 1500, 0)" style="clip-path: url(#clip-0);">
    <path d="M 792 231 L 802 136 L 738 194 Z" style="fill: rgb(78,103,118);"/>
    <path d="M 802 136 L 737 124 L 738 194 Z" style="fill: rgb(83,116,136);"/>
    <path d="M 792 231 L 872 229 L 802 136 Z" style="fill: rgb(89,103,111);"/>
    <path d="M 872 229 L 873 133 L 802 136 Z" style="fill: rgb(109,122,126);"/>
    <path d="M 760 16 L 698 80 L 737 124 Z" style="fill: rgb(75,113,137);"/>
    <path d="M 619 200 L 699 271 L 738 194 Z" style="fill: rgb(63,93,112);"/>
    <path d="M 738 194 L 699 271 L 792 231 Z" style="fill: rgb(53,81,98);"/>
    <path d="M 792 231 L 877 293 L 872 229 Z" style="fill: rgb(79,85,86);"/>
    <path d="M 699 271 L 772 315 L 792 231 Z" style="fill: rgb(71,81,86);"/>
    <path d="M 815 38 L 737 124 L 802 136 Z" style="fill: rgb(94,123,141);"/>
    <path d="M 737 124 L 625 165 L 738 194 Z" style="fill: rgb(82,118,140);"/>
    <path d="M 772 315 L 877 293 L 792 231 Z" style="fill: rgb(94,91,84);"/>
    <path d="M 934 234 L 916 116 L 873 133 Z" style="fill: rgb(129,132,127);"/>
    <path d="M 934 234 L 873 133 L 872 229 Z" style="fill: rgb(110,113,109);"/>
    <path d="M 873 133 L 815 38 L 802 136 Z" style="fill: rgb(111,130,141);"/>
    <path d="M 867 33 L 815 38 L 873 133 Z" style="fill: rgb(108,122,130);"/>
    <path d="M 929 289 L 934 234 L 872 229 Z" style="fill: rgb(97,93,84);"/>
    <path d="M 1014 42 L 912 85 L 916 116 Z" style="fill: rgb(141,139,131);"/>
    <path d="M 916 116 L 912 85 L 873 133 Z" style="fill: rgb(136,143,141);"/>
    <path d="M 718 363 L 780 342 L 772 315 Z" style="fill: rgb(126,108,80);"/>
    <path d="M 772 315 L 839 356 L 877 293 Z" style="fill: rgb(130,110,79);"/>
    <path d="M 698 80 L 625 165 L 737 124 Z" style="fill: rgb(95,136,160);"/>
    <path d="M 625 165 L 619 200 L 738 194 Z" style="fill: rgb(78,113,133);"/>
    <path d="M 815 38 L 760 16 L 737 124 Z" style="fill: rgb(77,108,129);"/>
    <path d="M 912 85 L 867 33 L 873 133 Z" style="fill: rgb(123,131,134);"/>
    <path d="M 815 38 L 814.3559322033898 0 L 768.8333333333334 0 L 760 16 Z" style="fill: rgb(69,92,112);"/>
    <path d="M 760 16 L 729 15 L 698 80 Z" style="fill: rgb(64,101,127);"/>
    <path d="M 698 80 L 660 51 L 625 165 Z" style="fill: rgb(91,132,157);"/>
    <path d="M 877 293 L 929 289 L 872 229 Z" style="fill: rgb(107,98,83);"/>
    <path d="M 917 345 L 929 289 L 877 293 Z" style="fill: rgb(141,115,78);"/>
    <path d="M 780 342 L 839 356 L 772 315 Z" style="fill: rgb(135,112,79);"/>
    <path d="M 729 15 L 660 51 L 698 80 Z" style="fill: rgb(71,110,136);"/>
    <path d="M 619 200 L 649 308 L 699 271 Z" style="fill: rgb(68,89,102);"/>
    <path d="M 699 271 L 718 363 L 772 315 Z" style="fill: rgb(109,100,86);"/>
    <path d="M 649 308 L 718 363 L 699 271 Z" style="fill: rgb(112,105,93);"/>
    <path d="M 789 439 L 856 428 L 839 356 Z" style="fill: rgb(171,123,69);"/>
    <path d="M 912 85 L 881 5 L 867 33 Z" style="fill: rgb(110,117,121);"/>
    <path d="M 867 33 L 881 5 L 815 38 Z" style="fill: rgb(96,108,117);"/>
    <path d="M 760 16 L 751.04 0 L 726.7702702702703 0 L 729 15 Z" style="fill: rgb(52,88,115);"/>
    <path d="M 625 165 L 580 186 L 619 200 Z" style="fill: rgb(85,122,144);"/>
    <path d="M 619 200 L 540 275 L 649 308 Z" style="fill: rgb(75,97,111);"/>
    <path d="M 546 163 L 580 186 L 625 165 Z" style="fill: rgb(92,131,154);"/>
    <path d="M 839 356 L 917 345 L 877 293 Z" style="fill: rgb(150,120,76);"/>
    <path d="M 1039 274 L 992 235 L 1017 333 Z" style="fill: rgb(147,119,77);"/>
    <path d="M 929 289 L 992 235 L 934 234 Z" style="fill: rgb(109,99,82);"/>
    <path d="M 934 234 L 992 235 L 916 116 Z" style="fill: rgb(127,122,109);"/>
    <path d="M 912 85 L 919.5742574257425 0 L 890.5238095238095 0 L 881 5 Z" style="fill: rgb(111,114,116);"/>
    <path d="M 649 308 L 633 346 L 718 363 Z" style="fill: rgb(135,119,94);"/>
    <path d="M 578 362 L 633 346 L 649 308 Z" style="fill: rgb(141,126,101);"/>
    <path d="M 1014 42 L 946.6551724137931 0 L 919.5742574257425 0 L 912 85 Z" style="fill: rgb(128,125,118);"/>
    <path d="M 768.8333333333334 0 L 751.04 0 L 760 16 Z" style="fill: rgb(56,88,112);"/>
    <path d="M 533 89 L 546 163 L 625 165 Z" style="fill: rgb(105,149,174);"/>
    <path d="M 580 186 L 540 275 L 619 200 Z" style="fill: rgb(75,110,130);"/>
    <path d="M 877 0 L 814.3559322033898 0 L 815 38 L 881 5 Z" style="fill: rgb(82,97,111);"/>
    <path d="M 729 15 L 693.375 0 L 642.5526315789474 0 L 660 51 Z" style="fill: rgb(63,102,129);"/>
    <path d="M 660 51 L 533 89 L 625 165 Z" style="fill: rgb(98,142,167);"/>
    <path d="M 789 439 L 839 356 L 780 342 Z" style="fill: rgb(164,127,73);"/>
    <path d="M 839 356 L 856 428 L 917 345 Z" style="fill: rgb(181,137,69);"/>
    <path d="M 789 439 L 780 342 L 718 363 Z" style="fill: rgb(154,121,75);"/>
    <path d="M 696 447 L 789 439 L 718 363 Z" style="fill: rgb(154,113,74);"/>
    <path d="M 726.7702702702703 0 L 693.375 0 L 729 15 Z" style="fill: rgb(56,94,122);"/>
    <path d="M 992 235 L 1036 112 L 916 116 Z" style="fill: rgb(153,146,128);"/>
    <path d="M 511 231 L 540 275 L 580 186 Z" style="fill: rgb(76,110,131);"/>
    <path d="M 881.1098901098901 0 L 877 0 L 881 5 Z" style="fill: rgb(90,100,110);"/>
    <path d="M 1036 112 L 1014 42 L 916 116 Z" style="fill: rgb(156,148,132);"/>
    <path d="M 642.5526315789474 0 L 589.7692307692307 0 L 588 1 L 660 51 Z" style="fill: rgb(66,107,135);"/>
    <path d="M 588 1 L 533 89 L 660 51 Z" style="fill: rgb(82,125,153);"/>
    <path d="M 546 163 L 511 231 L 580 186 Z" style="fill: rgb(89,127,149);"/>
    <path d="M 1017 333 L 929 289 L 917 345 Z" style="fill: rgb(163,127,73);"/>
    <path d="M 1017 333 L 992 235 L 929 289 Z" style="fill: rgb(141,116,78);"/>
    <path d="M 992 235 L 1070 154 L 1036 112 Z" style="fill: rgb(162,147,120);"/>
    <path d="M 540 275 L 578 362 L 649 308 Z" style="fill: rgb(126,121,108);"/>
    <path d="M 633 346 L 696 447 L 718 363 Z" style="fill: rgb(161,129,86);"/>
    <path d="M 1007 436 L 1017 333 L 917 345 Z" style="fill: rgb(206,152,62);"/>
    <path d="M 503 129 L 511 231 L 546 163 Z" style="fill: rgb(98,140,164);"/>
    <path d="M 540 275 L 494 342 L 578 362 Z" style="fill: rgb(142,134,116);"/>
    <path d="M 645 452 L 696 447 L 633 346 Z" style="fill: rgb(165,125,87);"/>
    <path d="M 890.5238095238095 0 L 881.1098901098901 0 L 881 5 Z" style="fill: rgb(101,105,109);"/>
    <path d="M 1078 234 L 1070 154 L 992 235 Z" style="fill: rgb(149,130,99);"/>
    <path d="M 1036 112 L 1067 66 L 1014 42 Z" style="fill: rgb(165,150,126);"/>
    <path d="M 480 66 L 503 129 L 533 89 Z" style="fill: rgb(108,155,183);"/>
    <path d="M 533 89 L 503 129 L 546 163 Z" style="fill: rgb(114,161,187);"/>
    <path d="M 834.5945945945946 500 L 836.5806451612904 500 L 914 440 L 856 428 Z" style="fill: rgb(181,116,62);"/>
    <path d="M 856 428 L 914 440 L 917 345 Z" style="fill: rgb(188,134,65);"/>
    <path d="M 832.5714285714286 500 L 834.5945945945946 500 L 856 428 L 789 439 Z" style="fill: rgb(171,111,64);"/>
    <path d="M 589.7692307692307 0 L 587.5625 0 L 588 1 Z" style="fill: rgb(68,110,139);"/>
    <path d="M 1114 287 L 1078 234 L 1039 274 Z" style="fill: rgb(150,121,76);"/>
    <path d="M 1039 274 L 1078 234 L 992 235 Z" style="fill: rgb(130,110,81);"/>
    <path d="M 578 362 L 645 452 L 633 346 Z" style="fill: rgb(171,138,96);"/>
    <path d="M 696 447 L 733 486 L 789 439 Z" style="fill: rgb(154,102,70);"/>
    <path d="M 1070 154 L 1067 66 L 1036 112 Z" style="fill: rgb(182,165,136);"/>
    <path d="M 946.6551724137931 0 L 1014 42 L 1025.5294117647059 0 Z" style="fill: rgb(129,119,108);"/>
    <path d="M 1138 137 L 1067 66 L 1070 154 Z" style="fill: rgb(195,173,137);"/>
    <path d="M 645 452 L 733 486 L 696 447 Z" style="fill: rgb(161,108,77);"/>
    <path d="M 1067 66 L 1032.68 0 L 1025.5294117647059 0 L 1014 42 Z" style="fill: rgb(151,135,114);"/>
    <path d="M 511 231 L 485 300 L 540 275 Z" style="fill: rgb(93,114,125);"/>
    <path d="M 578 362 L 572 443 L 645 452 Z" style="fill: rgb(174,133,96);"/>
    <path d="M 393 236 L 485 300 L 511 231 Z" style="fill: rgb(85,116,134);"/>
    <path d="M 798.1149425287356 500 L 832.5714285714286 500 L 789 439 Z" style="fill: rgb(167,100,62);"/>
    <path d="M 584.4864864864865 0 L 465.7647058823529 0 L 480 66 L 588 1 Z" style="fill: rgb(81,126,156);"/>
    <path d="M 588 1 L 480 66 L 533 89 Z" style="fill: rgb(91,136,165);"/>
    <path d="M 503 129 L 393 236 L 511 231 Z" style="fill: rgb(96,136,160);"/>
    <path d="M 485 300 L 494 342 L 540 275 Z" style="fill: rgb(129,130,123);"/>
    <path d="M 981.3972602739726 500 L 997.8571428571429 500 L 1007 436 L 914 440 Z" style="fill: rgb(207,128,54);"/>
    <path d="M 914 440 L 1007 436 L 917 345 Z" style="fill: rgb(201,140,61);"/>
    <path d="M 1017 333 L 1114 287 L 1039 274 Z" style="fill: rgb(170,131,72);"/>
    <path d="M 463 413 L 572 443 L 578 362 Z" style="fill: rgb(183,146,107);"/>
    <path d="M 645 452 L 624.3488372093024 500 L 699.3461538461538 500 L 733 486 Z" style="fill: rgb(166,105,78);"/>
    <path d="M 1007 436 L 1062 385 L 1017 333 Z" style="fill: rgb(221,157,56);"/>
    <path d="M 733 486 L 757.15 500 L 798.1149425287356 500 L 789 439 Z" style="fill: rgb(158,97,65);"/>
    <path d="M 836.5806451612904 500 L 914.6976744186046 500 L 914 440 Z" style="fill: rgb(186,110,58);"/>
    <path d="M 1062 385 L 1114 287 L 1017 333 Z" style="fill: rgb(200,148,64);"/>
    <path d="M 1078 234 L 1138 137 L 1070 154 Z" style="fill: rgb(176,152,113);"/>
    <path d="M 1177 228 L 1138 137 L 1078 234 Z" style="fill: rgb(173,144,100);"/>
    <path d="M 1113 6 L 1079 0 L 1032.68 0 L 1067 66 Z" style="fill: rgb(156,136,110);"/>
    <path d="M 1007 436 L 1084 426 L 1062 385 Z" style="fill: rgb(227,152,51);"/>
    <path d="M 1166 45 L 1113 6 L 1067 66 Z" style="fill: rgb(175,148,113);"/>
    <path d="M 427 35 L 415 114 L 480 66 Z" style="fill: rgb(108,157,187);"/>
    <path d="M 480 66 L 415 114 L 503 129 Z" style="fill: rgb(116,164,192);"/>
    <path d="M 388 387 L 463 413 L 494 342 Z" style="fill: rgb(196,167,124);"/>
    <path d="M 1079 0 L 1113 6 L 1109.5116279069769 0 Z" style="fill: rgb(149,128,104);"/>
    <path d="M 1174 358 L 1160 264 L 1114 287 Z" style="fill: rgb(191,141,66);"/>
    <path d="M 1114 287 L 1160 264 L 1078 234 Z" style="fill: rgb(158,125,74);"/>
    <path d="M 1101 487 L 1084 426 L 1007 436 Z" style="fill: rgb(230,145,46);"/>
    <path d="M 1062 385 L 1174 358 L 1114 287 Z" style="fill: rgb(220,159,57);"/>
    <path d="M 465.7647058823529 0 L 442.28169014084506 0 L 427 35 L 480 66 Z" style="fill: rgb(90,138,169);"/>
    <path d="M 510.4659090909091 500 L 577.1044776119403 500 L 572 443 Z" style="fill: rgb(184,122,97);"/>
    <path d="M 572 443 L 577.1044776119403 500 L 589.551724137931 500 L 645 452 Z" style="fill: rgb(175,121,91);"/>
    <path d="M 914.6976744186046 500 L 981.3972602739726 500 L 914 440 Z" style="fill: rgb(199,116,54);"/>
    <path d="M 587.5625 0 L 584.4864864864865 0 L 588 1 Z" style="fill: rgb(74,118,149);"/>
    <path d="M 1219 294 L 1177 228 L 1160 264 Z" style="fill: rgb(160,121,72);"/>
    <path d="M 1160 264 L 1177 228 L 1078 234 Z" style="fill: rgb(155,124,79);"/>
    <path d="M 1138 137 L 1166 45 L 1067 66 Z" style="fill: rgb(191,165,125);"/>
    <path d="M 363 214 L 393 236 L 415 114 Z" style="fill: rgb(109,154,179);"/>
    <path d="M 415 114 L 393 236 L 503 129 Z" style="fill: rgb(114,160,186);"/>
    <path d="M 494 342 L 463 413 L 578 362 Z" style="fill: rgb(184,157,115);"/>
    <path d="M 388 387 L 494 342 L 485 300 Z" style="fill: rgb(168,153,128);"/>
    <path d="M 589.551724137931 500 L 624.3488372093024 500 L 645 452 Z" style="fill: rgb(174,110,86);"/>
    <path d="M 1237 76 L 1166 45 L 1138 137 Z" style="fill: rgb(194,162,124);"/>
    <path d="M 1109.5116279069766 0 L 1113 6 L 1125 0 Z" style="fill: rgb(160,134,102);"/>
    <path d="M 393 236 L 387 277 L 485 300 Z" style="fill: rgb(106,129,140);"/>
    <path d="M 730.3898305084746 500 L 757.15 500 L 733 486 Z" style="fill: rgb(153,89,64);"/>
    <path d="M 1166 45 L 1157.75 0 L 1125 0 L 1113 6 Z" style="fill: rgb(168,139,104);"/>
    <path d="M 404.9259259259259 0 L 403 8 L 413 0 Z" style="fill: rgb(86,134,167);"/>
    <path d="M 442.28169014084506 0 L 413 0 L 403 8 L 427 35 Z" style="fill: rgb(87,135,167);"/>
    <path d="M 427 35 L 362 33 L 415 114 Z" style="fill: rgb(110,160,191);"/>
    <path d="M 393 236 L 363 214 L 387 277 Z" style="fill: rgb(91,130,152);"/>
    <path d="M 1177 228 L 1208 162 L 1138 137 Z" style="fill: rgb(184,152,110);"/>
    <path d="M 1220.25 0 L 1242 5 L 1236.9358974358975 0 Z" style="fill: rgb(165,131,99);"/>
    <path d="M 308 126 L 363 214 L 415 114 Z" style="fill: rgb(123,172,200);"/>
    <path d="M 1181 438 L 1174 358 L 1084 426 Z" style="fill: rgb(246,163,42);"/>
    <path d="M 1084 426 L 1174 358 L 1062 385 Z" style="fill: rgb(241,167,46);"/>
    <path d="M 1177 228 L 1226 183 L 1208 162 Z" style="fill: rgb(178,142,102);"/>
    <path d="M 699.3461538461538 500 L 724.2336448598131 500 L 733 486 Z" style="fill: rgb(165,101,77);"/>
    <path d="M 724.2336448598131 500 L 730.3898305084746 500 L 733 486 Z" style="fill: rgb(159,96,71);"/>
    <path d="M 997.8571428571429 500 L 1048.5 500 L 1101 487 L 1007 436 Z" style="fill: rgb(223,133,47);"/>
    <path d="M 1102.5376344086021 500 L 1101 487 L 1048.5 500 Z" style="fill: rgb(231,131,42);"/>
    <path d="M 1138.3917525773195 500 L 1144 483 L 1101 487 L 1102.5376344086021 500 Z" style="fill: rgb(244,138,35);"/>
    <path d="M 1219 294 L 1226 183 L 1177 228 Z" style="fill: rgb(158,121,80);"/>
    <path d="M 1208 162 L 1237 76 L 1138 137 Z" style="fill: rgb(207,174,135);"/>
    <path d="M 387 277 L 388 387 L 485 300 Z" style="fill: rgb(154,150,136);"/>
    <path d="M 463 413 L 473.3220338983051 500 L 510.4659090909091 500 L 572 443 Z" style="fill: rgb(189,137,107);"/>
    <path d="M 317 334 L 388 387 L 387 277 Z" style="fill: rgb(169,161,141);"/>
    <path d="M 1174 358 L 1219 294 L 1160 264 Z" style="fill: rgb(193,139,64);"/>
    <path d="M 1222 362 L 1219 294 L 1174 358 Z" style="fill: rgb(218,151,56);"/>
    <path d="M 379.96 0 L 341.54 0 L 362 33 L 403 8 Z" style="fill: rgb(94,144,178);"/>
    <path d="M 403 8 L 362 33 L 427 35 Z" style="fill: rgb(99,148,180);"/>
    <path d="M 1242 5 L 1220.25 0 L 1157.75 0 L 1166 45 Z" style="fill: rgb(169,135,103);"/>
    <path d="M 1296 164 L 1208 162 L 1226 183 Z" style="fill: rgb(188,149,111);"/>
    <path d="M 1296 164 L 1237 76 L 1208 162 Z" style="fill: rgb(204,165,129);"/>
    <path d="M 394 462 L 439.71014492753625 500 L 473.3220338983051 500 L 463 413 Z" style="fill: rgb(199,145,116);"/>
    <path d="M 1101 487 L 1144 483 L 1084 426 Z" style="fill: rgb(242,147,39);"/>
    <path d="M 1144 483 L 1181 438 L 1084 426 Z" style="fill: rgb(246,152,38);"/>
    <path d="M 1181 438 L 1222 362 L 1174 358 Z" style="fill: rgb(246,165,42);"/>
    <path d="M 1219 294 L 1288 259 L 1226 183 Z" style="fill: rgb(154,113,74);"/>
    <path d="M 238 185 L 316 278 L 363 214 Z" style="fill: rgb(90,131,155);"/>
    <path d="M 363 214 L 316 278 L 387 277 Z" style="fill: rgb(94,127,147);"/>
    <path d="M 388 387 L 394 462 L 463 413 Z" style="fill: rgb(202,162,126);"/>
    <path d="M 253 33 L 308 126 L 362 33 Z" style="fill: rgb(106,157,189);"/>
    <path d="M 362 33 L 308 126 L 415 114 Z" style="fill: rgb(121,173,204);"/>
    <path d="M 334 418 L 394 462 L 388 387 Z" style="fill: rgb(208,168,132);"/>
    <path d="M 1237 76 L 1242 5 L 1166 45 Z" style="fill: rgb(179,143,110);"/>
    <path d="M 1296 71 L 1242 5 L 1237 76 Z" style="fill: rgb(183,142,111);"/>
    <path d="M 242 296 L 317 334 L 316 278 Z" style="fill: rgb(134,139,137);"/>
    <path d="M 316 278 L 317 334 L 387 277 Z" style="fill: rgb(133,142,142);"/>
    <path d="M 404.9259259259259 0 L 379.96 0 L 403 8 Z" style="fill: rgb(91,141,174);"/>
    <path d="M 1320 357 L 1219 294 L 1222 362 Z" style="fill: rgb(218,146,54);"/>
    <path d="M 1320 357 L 1288 259 L 1219 294 Z" style="fill: rgb(192,130,62);"/>
    <path d="M 317 334 L 334 418 L 388 387 Z" style="fill: rgb(203,176,134);"/>
    <path d="M 1288 259 L 1296 164 L 1226 183 Z" style="fill: rgb(173,131,94);"/>
    <path d="M 1144 483 L 1232 499 L 1181 438 Z" style="fill: rgb(245,141,35);"/>
    <path d="M 1181 438 L 1264 450 L 1222 362 Z" style="fill: rgb(246,154,39);"/>
    <path d="M 1244.6 0 L 1240.7083333333333 0 L 1242 5 Z" style="fill: rgb(165,126,97);"/>
    <path d="M 1236.9358974358975 0 L 1242 5 L 1240.7083333333333 0 Z" style="fill: rgb(165,129,99);"/>
    <path d="M 1296 164 L 1296 71 L 1237 76 Z" style="fill: rgb(201,160,126);"/>
    <path d="M 391.5 500 L 439.71014492753625 500 L 394 462 Z" style="fill: rgb(203,140,117);"/>
    <path d="M 348.2448979591837 500 L 391.5 500 L 394 462 Z" style="fill: rgb(210,147,124);"/>
    <path d="M 1138.3917525773195 500 L 1142.8446601941748 500 L 1144 483 Z" style="fill: rgb(245,138,34);"/>
    <path d="M 1288 259 L 1321 186 L 1296 164 Z" style="fill: rgb(173,128,93);"/>
    <path d="M 1296 164 L 1358 143 L 1296 71 Z" style="fill: rgb(208,163,130);"/>
    <path d="M 238 150 L 238 185 L 308 126 Z" style="fill: rgb(111,159,188);"/>
    <path d="M 1156.0485436893205 500 L 1231.8275862068965 500 L 1232 499 L 1144 483 Z" style="fill: rgb(245,132,33);"/>
    <path d="M 1288 259 L 1409 229 L 1321 186 Z" style="fill: rgb(164,115,81);"/>
    <path d="M 308 126 L 238 185 L 363 214 Z" style="fill: rgb(108,154,181);"/>
    <path d="M 317 334 L 247 351 L 334 418 Z" style="fill: rgb(192,168,131);"/>
    <path d="M 238 150 L 308 126 L 253 33 Z" style="fill: rgb(115,166,197);"/>
    <path d="M 1232 499 L 1264 450 L 1181 438 Z" style="fill: rgb(245,140,35);"/>
    <path d="M 304.48 0 L 253 33 L 362 33 L 341.54 0 Z" style="fill: rgb(92,142,175);"/>
    <path d="M 1296 71 L 1297.6511627906978 0 L 1256 0 L 1242 5 Z" style="fill: rgb(172,130,102);"/>
    <path d="M 1414 52 L 1323.9701492537313 0 L 1297.6511627906978 0 L 1296 71 Z" style="fill: rgb(178,131,104);"/>
    <path d="M 244.14634146341464 0 L 253 33 L 304.48 0 Z" style="fill: rgb(83,132,167);"/>
    <path d="M 238 185 L 242 296 L 316 278 Z" style="fill: rgb(81,116,138);"/>
    <path d="M 334 418 L 334.8817204301075 500 L 348.2448979591837 500 L 394 462 Z" style="fill: rgb(207,155,126);"/>
    <path d="M 255 454 L 319.56140350877195 500 L 334.8817204301075 500 L 334 418 Z" style="fill: rgb(201,150,122);"/>
    <path d="M 1264 450 L 1320 357 L 1222 362 Z" style="fill: rgb(246,157,40);"/>
    <path d="M 242 296 L 247 351 L 317 334 Z" style="fill: rgb(153,147,132);"/>
    <path d="M 1409 229 L 1358 143 L 1321 186 Z" style="fill: rgb(181,131,99);"/>
    <path d="M 1321 186 L 1358 143 L 1296 164 Z" style="fill: rgb(191,144,111);"/>
    <path d="M 182 70 L 188 150 L 238 150 Z" style="fill: rgb(114,166,197);"/>
    <path d="M 1256 0 L 1244.6 0 L 1242 5 Z" style="fill: rgb(166,123,96);"/>
    <path d="M 1303 486 L 1335 416 L 1264 450 Z" style="fill: rgb(245,136,34);"/>
    <path d="M 1264 450 L 1335 416 L 1320 357 Z" style="fill: rgb(246,148,37);"/>
    <path d="M 1142.8446601941748 500 L 1156.0485436893205 500 L 1144 483 Z" style="fill: rgb(245,135,33);"/>
    <path d="M 247 351 L 255 454 L 334 418 Z" style="fill: rgb(197,160,125);"/>
    <path d="M 177 418 L 255 454 L 247 351 Z" style="fill: rgb(191,154,120);"/>
    <path d="M 1303 486 L 1264 450 L 1232 499 Z" style="fill: rgb(245,131,32);"/>
    <path d="M 1406 314 L 1409 229 L 1288 259 Z" style="fill: rgb(165,107,66);"/>
    <path d="M 182 70 L 238 150 L 253 33 Z" style="fill: rgb(104,155,187);"/>
    <path d="M 238 150 L 188 150 L 238 185 Z" style="fill: rgb(104,151,180);"/>
    <path d="M 177 188 L 198 314 L 242 296 Z" style="fill: rgb(90,115,131);"/>
    <path d="M 242 296 L 198 314 L 247 351 Z" style="fill: rgb(143,140,129);"/>
    <path d="M 1233.1538461538462 500 L 1307.576923076923 500 L 1303 486 L 1232 499 Z" style="fill: rgb(244,122,30);"/>
    <path d="M 177 188 L 242 296 L 238 185 Z" style="fill: rgb(82,122,148);"/>
    <path d="M 244.14634146341464 0 L 218 0 L 206 4 L 253 33 Z" style="fill: rgb(81,130,165);"/>
    <path d="M 206.5079365079365 0 L 206 4 L 218 0 Z" style="fill: rgb(76,125,160);"/>
    <path d="M 188 150 L 177 188 L 238 185 Z" style="fill: rgb(97,143,171);"/>
    <path d="M 113 145 L 177 188 L 188 150 Z" style="fill: rgb(97,144,174);"/>
    <path d="M 206 4 L 182 70 L 253 33 Z" style="fill: rgb(87,137,171);"/>
    <path d="M 214.75 500 L 264.35593220338984 500 L 255 454 Z" style="fill: rgb(194,131,111);"/>
    <path d="M 319.56140350877195 500 L 255 454 L 264.35593220338984 500 Z" style="fill: rgb(199,139,116);"/>
    <path d="M 206 4 L 134 39 L 182 70 Z" style="fill: rgb(83,133,167);"/>
    <path d="M 117 270 L 186 348 L 198 314 Z" style="fill: rgb(129,129,124);"/>
    <path d="M 198 314 L 186 348 L 247 351 Z" style="fill: rgb(156,145,126);"/>
    <path d="M 1406 314 L 1288 259 L 1320 357 Z" style="fill: rgb(197,127,59);"/>
    <path d="M 1358 143 L 1414 52 L 1296 71 Z" style="fill: rgb(196,147,119);"/>
    <path d="M 1395 370 L 1406 314 L 1320 357 Z" style="fill: rgb(224,139,48);"/>
    <path d="M 1395 370 L 1320 357 L 1335 416 Z" style="fill: rgb(246,152,38);"/>
    <path d="M 1400 414 L 1395 370 L 1335 416 Z" style="fill: rgb(245,144,36);"/>
    <path d="M 1479 150 L 1414 52 L 1358 143 Z" style="fill: rgb(206,151,124);"/>
    <path d="M 1323.9701492537313 0 L 1414 52 L 1403.83908045977 0 Z" style="fill: rgb(166,116,93);"/>
    <path d="M 186 348 L 177 418 L 247 351 Z" style="fill: rgb(185,159,121);"/>
    <path d="M 137 376 L 177 418 L 186 348 Z" style="fill: rgb(183,154,117);"/>
    <path d="M 1373 500 L 1386.1724137931035 500 L 1335 416 L 1303 486 Z" style="fill: rgb(244,127,31);"/>
    <path d="M 1386.1724137931035 500 L 1388.4044943820224 500 L 1400 414 L 1335 416 Z" style="fill: rgb(245,131,32);"/>
    <path d="M 1395 370 L 1455 339 L 1406 314 Z" style="fill: rgb(220,133,49);"/>
    <path d="M 1479 150 L 1433 38 L 1414 52 Z" style="fill: rgb(194,137,113);"/>
    <path d="M 1403.83908045977 0 L 1414 52 L 1433 38 L 1414.2602739726028 0 Z" style="fill: rgb(173,118,97);"/>
    <path d="M 1479 150 L 1358 143 L 1409 229 Z" style="fill: rgb(187,132,103);"/>
    <path d="M 1470 228 L 1409 229 L 1477 271 Z" style="fill: rgb(156,97,69);"/>
    <path d="M 182 0 L 107.50943396226415 0 L 134 39 L 206 4 Z" style="fill: rgb(71,120,156);"/>
    <path d="M 182 70 L 113 145 L 188 150 Z" style="fill: rgb(109,160,192);"/>
    <path d="M 177 188 L 117 270 L 198 314 Z" style="fill: rgb(76,107,128);"/>
    <path d="M 134 39 L 113 145 L 182 70 Z" style="fill: rgb(95,145,179);"/>
    <path d="M 111 235 L 117 270 L 177 188 Z" style="fill: rgb(70,109,135);"/>
    <path d="M 113 145 L 111 235 L 177 188 Z" style="fill: rgb(85,128,156);"/>
    <path d="M 117 270 L 137 376 L 186 348 Z" style="fill: rgb(144,135,120);"/>
    <path d="M 177 418 L 182.6551724137931 500 L 214.75 500 L 255 454 Z" style="fill: rgb(190,136,111);"/>
    <path d="M 1307.576923076923 500 L 1373 500 L 1303 486 Z" style="fill: rgb(244,117,29);"/>
    <path d="M 1231.8275862068965 500 L 1233.1538461538462 500 L 1232 499 Z" style="fill: rgb(244,125,31);"/>
    <path d="M 1455 339 L 1395 370 L 1400 414 Z" style="fill: rgb(245,147,37);"/>
    <path d="M 1477 271 L 1409 229 L 1406 314 Z" style="fill: rgb(168,104,63);"/>
    <path d="M 1454 441 L 1455 339 L 1400 414 Z" style="fill: rgb(245,138,34);"/>
    <path d="M 1470 228 L 1479 150 L 1409 229 Z" style="fill: rgb(174,115,88);"/>
    <path d="M 1414.2602739726028 0 L 1433 38 L 1459.5116279069769 0 Z" style="fill: rgb(166,110,91);"/>
    <path d="M 139.02105263157895 500 L 182.6551724137931 500 L 177 418 Z" style="fill: rgb(185,126,105);"/>
    <path d="M 1455 339 L 1477 271 L 1406 314 Z" style="fill: rgb(195,117,56);"/>
    <path d="M 1470 228 L 1500 192.21052631578948 L 1500 154.375 L 1479 150 Z" style="fill: rgb(185,122,98);"/>
    <path d="M 1500 49.725 L 1500 37.18 L 1467.3859649122808 0 L 1459.5116279069769 0 L 1433 38 Z" style="fill: rgb(176,116,98);"/>
    <path d="M 206.5079365079365 0 L 182 0 L 206 4 Z" style="fill: rgb(71,120,155);"/>
    <path d="M 134 39 L 59 146 L 113 145 Z" style="fill: rgb(99,149,182);"/>
    <path d="M 113 145 L 59 146 L 111 235 Z" style="fill: rgb(85,130,160);"/>
    <path d="M 1460.5555555555557 500 L 1454 441 L 1391.1935483870968 500 Z" style="fill: rgb(243,113,28);"/>
    <path d="M 1388.4044943820224 500 L 1391.1935483870968 500 L 1454 441 L 1400 414 Z" style="fill: rgb(244,124,31);"/>
    <path d="M 1455 339 L 1500 318.6575342465753 L 1500 286.7843137254902 L 1477 271 Z" style="fill: rgb(193,112,56);"/>
    <path d="M 137 376 L 103 420 L 177 418 Z" style="fill: rgb(181,145,112);"/>
    <path d="M 62 338 L 103 420 L 137 376 Z" style="fill: rgb(175,147,111);"/>
    <path d="M 62 338 L 137 376 L 117 270 Z" style="fill: rgb(137,129,117);"/>
    <path d="M 62 338 L 117 270 L 28 291 Z" style="fill: rgb(109,113,116);"/>
    <path d="M 19 67 L 59 146 L 134 39 Z" style="fill: rgb(87,137,171);"/>
    <path d="M 103 420 L 128.80645161290323 500 L 139.02105263157895 500 L 177 418 Z" style="fill: rgb(182,133,107);"/>
    <path d="M 1500 154.375 L 1500 89.47058823529412 L 1479 150 Z" style="fill: rgb(208,146,123);"/>
    <path d="M 1479 150 L 1500 89.47058823529412 L 1500 49.725 L 1433 38 Z" style="fill: rgb(194,134,112);"/>
    <path d="M 1500 192.21052631578948 L 1470 228 L 1500 217.45054945054946 Z" style="fill: rgb(178,114,90);"/>
    <path d="M 28 291 L 117 270 L 111 235 Z" style="fill: rgb(77,101,120);"/>
    <path d="M 89.66666666666666 500 L 53 489 L 61.07446808510638 500 Z" style="fill: rgb(178,116,98);"/>
    <path d="M 1500 250.46428571428572 L 1500 217.45054945054946 L 1470 228 L 1477 271 Z" style="fill: rgb(161,97,73);"/>
    <path d="M 1500 346.2972972972973 L 1500 318.6575342465753 L 1455 339 Z" style="fill: rgb(214,122,49);"/>
    <path d="M 1500 406.5 L 1500 346.2972972972973 L 1455 339 L 1454 441 Z" style="fill: rgb(245,139,34);"/>
    <path d="M 8 219 L 28 291 L 111 235 Z" style="fill: rgb(56,92,118);"/>
    <path d="M 53 489 L 89.66666666666666 500 L 128.80645161290323 500 L 103 420 Z" style="fill: rgb(177,122,100);"/>
    <path d="M 1467.3859649122808 0 L 1500 37.18 L 1500 0 Z" style="fill: rgb(169,107,91);"/>
    <path d="M 107.50943396226415 0 L 84.34567901234568 0 L 19 67 L 134 39 Z" style="fill: rgb(71,120,156);"/>
    <path d="M 59 146 L 8 219 L 111 235 Z" style="fill: rgb(73,115,143);"/>
    <path d="M 53 489 L 103 420 L 18 436 Z" style="fill: rgb(173,124,99);"/>
    <path d="M 38.02469135802469 0 L 19 67 L 84.34567901234568 0 Z" style="fill: rgb(62,111,147);"/>
    <path d="M 1500 286.7843137254902 L 1500 250.46428571428572 L 1477 271 Z" style="fill: rgb(158,92,63);"/>
    <path d="M 0 145.29761904761904 L 0 201.06060606060606 L 8 219 L 59 146 Z" style="fill: rgb(79,123,154);"/>
    <path d="M 1500 445.9126213592233 L 1500 406.5 L 1454 441 Z" style="fill: rgb(244,127,31);"/>
    <path d="M 0 71.36486486486487 L 0 100.68181818181819 L 19 67 Z" style="fill: rgb(84,134,168);"/>
    <path d="M 18 436 L 103 420 L 62 338 Z" style="fill: rgb(172,137,105);"/>
    <path d="M 0 421.97058823529414 L 18 436 L 62 338 L 0 362.9107142857143 Z" style="fill: rgb(166,135,101);"/>
    <path d="M 1468.3846153846155 500 L 1500 482.875 L 1500 445.9126213592233 L 1454 441 L 1460.5555555555557 500 Z" style="fill: rgb(243,112,28);"/>
    <path d="M 0 300.1304347826087 L 0 313.2 L 62 338 L 28 291 Z" style="fill: rgb(115,113,110);"/>
    <path d="M 0 0 L 0 40.82222222222222 L 19 67 L 38.02469135802469 0 Z" style="fill: rgb(59,109,145);"/>
    <path d="M 19 67 L 0 100.68181818181819 L 0 145.29761904761904 L 59 146 Z" style="fill: rgb(93,143,176);"/>
    <path d="M 8 219 L 0 245.76923076923077 L 0 300.1304347826087 L 28 291 Z" style="fill: rgb(76,95,112);"/>
    <path d="M 0 215.92307692307693 L 0 245.76923076923077 L 8 219 Z" style="fill: rgb(53,91,118);"/>
    <path d="M 1500 500 L 1500 482.875 L 1468.3846153846155 500 Z" style="fill: rgb(242,103,26);"/>
    <path d="M 0 201.06060606060606 L 0 215.92307692307693 L 8 219 Z" style="fill: rgb(72,115,145);"/>
    <path d="M 0 456.57142857142856 L 0 499.2755102040816 L 53 489 L 18 436 Z" style="fill: rgb(167,111,92);"/>
    <path d="M 0 40.82222222222222 L 0 71.36486486486487 L 19 67 Z" style="fill: rgb(69,118,154);"/>
    <path d="M 0 499.2755102040816 L 0 500 L 51.33035714285714 500 L 53 489 Z" style="fill: rgb(168,106,90);"/>
    <path d="M 61.07446808510638 500 L 53 489 L 51.330357142857146 500 Z" style="fill: rgb(175,112,95);"/>
    <path d="M 0 362.9107142857143 L 62 338 L 0 313.2 Z" style="fill: rgb(138,123,105);"/>
    <path d="M 0 421.97058823529414 L 0 438.4146341463415 L 18 436 Z" style="fill: rgb(166,124,97);"/>
    <path d="M 0 438.4146341463415 L 0 456.57142857142856 L 18 436 Z" style="fill: rgb(166,114,93);"/>
  </g>
</svg>